<svg enable-background="new 151 -1.3 585.1 58" viewBox="151 -1.3 585.1 58" xmlns="http://www.w3.org/2000/svg"><path d="m407.2.5h1.5c.7 0 .9.2.9 1v50.3c0 .7-.2 1-.9 1h-1.5c-.7 0-1-.2-1-1v-50.3c0-.7.3-1 1-1z" fill="#58585a"/><path d="m459.2 1.5v50.3c0 .7-.2 1-.9 1h-1.5c-.5 0-.7-.1-1-.6l-26.1-37.2c-2.4-3.5-4.4-7.4-6-9.6h-.1c0 2.8.4 7.5.4 12.1v34.3c0 .7-.2 1-.9 1h-1.5c-.7 0-1-.2-1-1v-50.3c0-.7.2-1 1-1h1.5c.6 0 .9.3 1 .5l25.4 36.3c2.7 3.9 5 8 6.8 10.5h.1c0-3.2-.5-8.2-.5-13.2v-33.2c0-.7.2-.9 1-.9h1.5c.6 0 .8.3.8 1z" fill="#58585a"/><path d="m511.3 52.7h-1.3c-1.1 0-1.5-.1-1.6-.8l-6.5-16.3h-24.4l-6.5 16.3c-.2.7-.6.8-1.7.8h-1.2c-.7 0-.9-.4-.7-.9l20.3-50.8c.3-.7.6-.9 1.2-.9h1.5c.7 0 1 .2 1.2.9l20.4 50.9c.2.5.1.8-.7.8zm-21.7-49.2h-.2c0 .4-.1 1.7-.6 3.2l-10.4 26.1h22.4l-10.4-26.1c-.5-1.5-.7-2.8-.8-3.2z" fill="#58585a"/><path d="m551.6 1.4-19.6 50.5c-.2.7-.6.9-1.3.9h-1.4c-.7 0-1-.2-1.3-.8l-19.6-50.6c-.2-.5-.1-.9.6-.9h1.4c1.1 0 1.4.1 1.6.8l16.3 42.3c.7 1.8 1.3 4 1.6 4.9h.2c.4-1 .9-3 1.5-4.9l16.4-42.3c.2-.7.6-.8 1.6-.8h1.4c.7 0 .8.4.6.9z" fill="#58585a"/><path d="m363.2 39.3c.1.1.2.2.4.2.1 0 .3-.1.4-.2.8-.8 2.4-2.6 3.9-4.8 2-2.8 4.3-6.9 4.3-10.5 0-4.8-3.9-8.6-8.6-8.6-4.8 0-8.6 3.9-8.6 8.6 0 3.6 2.4 7.7 4.3 10.5 1.6 2.2 3.1 3.9 3.9 4.8zm.4-20.7c2.9 0 5.3 2.4 5.3 5.3s-2.4 5.3-5.3 5.3-5.3-2.4-5.3-5.3c0-3 2.4-5.3 5.3-5.3zm0 0" fill="#37a8db"/><g fill="#58585a"><path d="m350.6 10c0-1.7-1.4-3-3-3-1.7 0-3 1.4-3 3 0 1.7 1.4 3 3 3 .4 0 .8-.1 1.1-.2l6.2 6.2 1.7-1.7-6.2-6.2c.1-.3.2-.7.2-1.1z"/><path d="m347.6-1.7c-6.5 0-11.7 5.2-11.7 11.7s5.2 11.7 11.7 11.7c1.7 0 3.2-.4 4.7-1l-1.8-1.8c-.9.3-1.8.4-2.8.4-5.1 0-9.3-4.2-9.3-9.3s4.2-9.3 9.3-9.3 9.3 4.2 9.3 9.3c0 1.3-.3 2.5-.7 3.6l1.8 1.8c.8-1.6 1.3-3.4 1.3-5.4-.1-6.5-5.3-11.7-11.8-11.7z"/><path d="m376.6 10c0-1.7 1.4-3 3-3 1.7 0 3 1.4 3 3 0 1.7-1.4 3-3 3-.4 0-.8-.1-1.1-.2l-6.2 6.2-1.7-1.7 6.2-6.2c-.2-.3-.2-.7-.2-1.1z"/><path d="m379.6-1.7c6.5 0 11.7 5.2 11.7 11.7s-5.2 11.7-11.7 11.7c-1.7 0-3.2-.4-4.7-1l1.8-1.8c.9.3 1.8.4 2.8.4 5.1 0 9.3-4.2 9.3-9.3s-4.2-9.3-9.3-9.3-9.3 4.2-9.3 9.3c0 1.3.3 2.5.7 3.6l-1.8 1.8c-.8-1.6-1.3-3.4-1.3-5.4.1-6.5 5.3-11.7 11.8-11.7z"/><path d="m350.6 42.9c0 1.7-1.4 3-3 3-1.7 0-3-1.4-3-3 0-1.7 1.4-3 3-3 .4 0 .8.1 1.1.2l6.2-6.2 1.7 1.7-6.2 6.2c.1.3.2.7.2 1.1z"/><path d="m347.6 54.6c-6.5 0-11.7-5.2-11.7-11.7s5.2-11.7 11.7-11.7c1.7 0 3.2.4 4.7 1l-1.8 1.8c-.9-.3-1.8-.4-2.8-.4-5.1 0-9.3 4.2-9.3 9.3s4.2 9.3 9.3 9.3 9.3-4.2 9.3-9.3c0-1.3-.3-2.5-.7-3.6l1.8-1.8c.8 1.6 1.3 3.4 1.3 5.4-.1 6.5-5.3 11.7-11.8 11.7z"/><path d="m376.6 42.9c0 1.7 1.4 3 3 3 1.7 0 3-1.4 3-3 0-1.7-1.4-3-3-3-.4 0-.8.1-1.1.2l-6.2-6.2-1.7 1.7 6.2 6.2c-.2.3-.2.7-.2 1.1z"/><path d="m379.6 54.6c6.5 0 11.7-5.2 11.7-11.7s-5.2-11.7-11.7-11.7c-1.7 0-3.2.4-4.7 1l1.8 1.8c.9-.3 1.8-.4 2.8-.4 5.1 0 9.3 4.2 9.3 9.3s-4.2 9.3-9.3 9.3-9.3-4.2-9.3-9.3c0-1.3.3-2.5.7-3.6l-1.8-1.8c-.8 1.6-1.3 3.4-1.3 5.4.1 6.5 5.3 11.7 11.8 11.7z"/></g></svg>