<svg enable-background="new 187 -6.2 658.6 67.9" viewBox="187 -6.2 658.6 67.9" xmlns="http://www.w3.org/2000/svg"><path d="m269.1-.8h1.6c.7 0 .9.2.9 1v53.6c0 .8-.2 1-.9 1h-1.6c-.8 0-1-.2-1-1v-53.6c-.1-.8.2-1 1-1z" fill="#fff"/><path d="m324.6.2v53.6c0 .8-.2 1-.9 1h-1.6c-.5 0-.8-.1-1.1-.6l-27.8-39.7c-2.6-3.7-4.7-7.9-6.4-10.2h-.2c0 3 .5 8 .5 12.9v36.5c0 .8-.2 1-.9 1h-1.6c-.8 0-1-.2-1-1v-53.5c0-.8.2-1 1-1h1.6c.6 0 .9.3 1.1.5l27 38.7c2.9 4.2 5.3 8.5 7.2 11.2h.2c0-3.4-.5-8.7-.5-14.1v-35.4c0-.7.2-.9 1-.9h1.6c.5 0 .8.2.8 1z" fill="#fff"/><path d="m380 54.8h-1.4c-1.2 0-1.6-.2-1.7-.9l-7-17.3h-26l-6.9 17.3c-.2.7-.6.9-1.8.9h-1.3c-.8 0-.9-.4-.7-.9l21.7-54.2c.3-.7.6-.9 1.3-.9h1.6c.7 0 1.1.2 1.3.9l21.7 54.2c.2.5.1.9-.8.9zm-23-52.4h-.2c0 .4-.1 1.8-.6 3.4l-11.1 27.8h23.9l-11.2-27.9c-.6-1.5-.8-2.9-.8-3.3z" fill="#fff"/><path d="m423 .1-20.9 53.8c-.2.7-.6.9-1.3.9h-1.5c-.8 0-1.1-.2-1.3-.9l-21-53.8c-.2-.5-.1-.9.6-.9h1.5c1.2 0 1.5.2 1.7.9l17.4 45.1c.7 2 1.3 4.2 1.7 5.3h.2c.4-1 .9-3.2 1.6-5.3l17.3-45.1c.2-.7.6-.9 1.7-.9h1.5c1 0 1.1.3.8.9z" fill="#fff"/><path d="m222.2 40.4c.1.1.2.2.4.2.1 0 .3-.1.4-.2.8-.9 2.5-2.8 4.2-5.1 2.1-3 4.6-7.3 4.6-11.2 0-5.1-4.1-9.2-9.2-9.2s-9.2 4.1-9.2 9.2c0 3.9 2.5 8.2 4.6 11.2 1.7 2.4 3.4 4.2 4.2 5.1zm.4-22c3.1 0 5.6 2.5 5.6 5.6s-2.5 5.6-5.6 5.6-5.6-2.5-5.6-5.6 2.5-5.6 5.6-5.6z" fill="#37a8db"/><g fill="#fff"><path d="m208.8 9.2c0-1.8-1.4-3.2-3.2-3.2s-3.2 1.4-3.2 3.2 1.4 3.2 3.2 3.2c.4 0 .8-.1 1.2-.2l6.6 6.6 1.8-1.8-6.6-6.6c.1-.3.2-.7.2-1.2z"/><path d="m205.5-3.2c-6.9 0-12.5 5.6-12.5 12.5s5.6 12.5 12.5 12.5c1.8 0 3.5-.4 5-1l-2-2c-1 .3-2 .5-3 .5-5.5 0-9.9-4.5-9.9-9.9s4.5-9.9 9.9-9.9c5.5 0 9.9 4.5 9.9 9.9 0 1.4-.3 2.6-.8 3.8l1.9 1.9c.9-1.7 1.4-3.7 1.4-5.7.1-7-5.5-12.6-12.4-12.6z"/><path d="m236.4 9.2c0-1.8 1.4-3.2 3.2-3.2s3.2 1.4 3.2 3.2-1.4 3.2-3.2 3.2c-.4 0-.8-.1-1.2-.2l-6.6 6.6-1.8-1.8 6.6-6.6c-.1-.3-.2-.7-.2-1.2z"/><path d="m239.6-3.2c6.9 0 12.5 5.6 12.5 12.5s-5.6 12.5-12.5 12.5c-1.8 0-3.5-.4-5-1l2-2c1 .3 2 .5 3 .5 5.5 0 9.9-4.5 9.9-9.9s-4.4-10.1-9.9-10.1-9.9 4.5-9.9 9.9c0 1.4.3 2.6.8 3.8l-1.9 1.9c-.9-1.7-1.4-3.7-1.4-5.7 0-6.8 5.6-12.4 12.4-12.4z"/><path d="m208.8 44.3c0 1.8-1.4 3.2-3.2 3.2s-3.2-1.4-3.2-3.2 1.4-3.2 3.2-3.2c.4 0 .8.1 1.2.2l6.6-6.6 1.8 1.8-6.6 6.6c.1.4.2.8.2 1.2z"/><path d="m205.5 56.8c-6.9 0-12.5-5.6-12.5-12.5s5.6-12.5 12.5-12.5c1.8 0 3.5.4 5 1l-2 2c-1-.3-2-.5-3-.5-5.5 0-9.9 4.5-9.9 9.9s4.5 9.9 9.9 9.9c5.5 0 9.9-4.5 9.9-9.9 0-1.4-.3-2.6-.8-3.8l1.9-1.9c.9 1.7 1.4 3.7 1.4 5.7.1 7-5.5 12.6-12.4 12.6z"/><path d="m236.4 44.3c0 1.8 1.4 3.2 3.2 3.2s3.2-1.4 3.2-3.2-1.4-3.2-3.2-3.2c-.4 0-.8.1-1.2.2l-6.6-6.6-1.8 1.8 6.6 6.6c-.1.4-.2.8-.2 1.2z"/><path d="m239.6 56.8c6.9 0 12.5-5.6 12.5-12.5s-5.6-12.5-12.5-12.5c-1.8 0-3.5.4-5 1l2 2c1-.3 2-.5 3-.5 5.5 0 9.9 4.5 9.9 9.9s-4.5 9.9-9.9 9.9-9.9-4.5-9.9-9.9c0-1.4.3-2.6.8-3.8l-1.9-1.9c-.9 1.7-1.4 3.7-1.4 5.7 0 7 5.6 12.6 12.4 12.6z"/></g></svg>