<svg enable-background="new 0 0 141.7 141.7" viewBox="0 0 141.7 141.7" xmlns="http://www.w3.org/2000/svg"><g fill="#818181"><path d="m125.8 15.9h-109.9c-5.1 0-9.2 4.1-9.2 9.2v91.6c0 5.1 4.1 9.2 9.2 9.2h109.9c5.1 0 9.2-4.1 9.2-9.2v-91.7c0-5-4.1-9.1-9.2-9.1zm-89.3 6.9c2.5 0 4.6 2 4.6 4.6 0 2.5-2.1 4.6-4.6 4.6s-4.6-2-4.6-4.6 2.1-4.6 4.6-4.6zm-13.7 0c2.5 0 4.6 2 4.6 4.6 0 2.5-2 4.6-4.6 4.6s-4.6-2-4.6-4.6 2-4.6 4.6-4.6zm103 93.9h-109.9v-77.8h109.9z"/><path d="m58.1 57.7-29.4-13.4v6.5l22.7 9.7v.1l-22.7 9.7v6.5l29.4-13.5z"/><path d="m71.9 57.4h16v6.2h-16z"/></g></svg>