<svg enable-background="new 0 0 141.7 141.7" viewBox="0 0 141.7 141.7" xmlns="http://www.w3.org/2000/svg"><g fill="#818181"><path d="m44.2 62.8h53.2c15.1 0 27.4-12.3 27.4-27.4s-12.3-27.4-27.4-27.4h-53.2c-15.2 0-27.4 12.3-27.4 27.4s12.2 27.4 27.4 27.4zm0-44.9c9.7 0 17.5 7.8 17.5 17.5s-7.8 17.5-17.5 17.5-17.5-7.8-17.5-17.5 7.8-17.5 17.5-17.5z"/><path d="m97.6 79h-53.2c-15.1 0-27.4 12.2-27.4 27.4s12.3 27.4 27.4 27.4h53.2c15.1 0 27.4-12.3 27.4-27.4s-12.2-27.4-27.4-27.4zm0 44.9c-9.7 0-17.5-7.8-17.5-17.5s7.9-17.5 17.5-17.5c9.7 0 17.5 7.8 17.5 17.5s-7.8 17.5-17.5 17.5z"/></g></svg>