<svg id="svg" xmlns="http://www.w3.org/2000/svg" xmlns:xlink="http://www.w3.org/1999/xlink" width="400" height="400" viewBox="0, 0, 400,400" version="1.1"><g id="svgg"><path id="path0" d="M178.359 94.751 L 157.831 129.114 172.786 130.715 L 187.740 132.317 186.275 173.414 L 184.810 214.510 156.962 231.109 C 124.248 250.607,118.238 251.566,113.924 237.975 C 108.860 222.020,104.425 225.553,84.486 261.427 C 60.144 305.222,59.392 303.797,106.871 303.797 C 141.348 303.797,147.427 302.582,144.846 296.203 C 143.155 292.025,140.616 285.759,139.204 282.278 C 137.636 278.417,149.481 269.040,169.583 258.228 L 202.532 240.506 235.480 258.228 C 259.237 271.006,267.576 278.068,265.374 283.544 C 263.694 287.722,261.155 293.987,259.732 297.468 C 257.788 302.224,267.349 303.797,298.192 303.797 C 345.671 303.797,344.919 305.222,320.577 261.427 C 300.638 225.553,296.203 222.020,291.139 237.975 C 286.825 251.566,280.815 250.607,248.101 231.109 L 220.253 214.510 218.788 173.414 L 217.323 132.317 232.338 130.715 L 247.354 129.114 227.520 96.218 C 202.144 54.130,202.617 54.145,178.359 94.751 " stroke="none" fill="#000000" fill-rule="evenodd"></path></g></svg>