<svg height="400" viewBox="0 0 400 400" width="400" xmlns="http://www.w3.org/2000/svg"><path d="m178.359 94.751-20.528 34.363 14.955 1.601 14.954 1.602-1.465 41.097-1.465 41.096-27.848 16.599c-32.714 19.498-38.724 20.457-43.038 6.866-5.064-15.955-9.499-12.422-29.438 23.452-24.342 43.795-25.094 42.37 22.385 42.37 34.477 0 40.556-1.215 37.975-7.594-1.691-4.178-4.23-10.444-5.642-13.925-1.568-3.861 10.277-13.238 30.379-24.05l32.949-17.722 32.948 17.722c23.757 12.778 32.096 19.84 29.894 25.316-1.68 4.178-4.219 10.443-5.642 13.924-1.944 4.756 7.617 6.329 38.46 6.329 47.479 0 46.727 1.425 22.385-42.37-19.939-35.874-24.374-39.407-29.438-23.452-4.314 13.591-10.324 12.632-43.038-6.866l-27.848-16.599-1.465-41.096-1.465-41.097 15.015-1.602 15.016-1.601-19.834-32.896c-25.376-42.088-24.903-42.073-49.161-1.467" fill-rule="evenodd"/></svg>