<svg height="400" viewBox="0 0 400 400" width="400" xmlns="http://www.w3.org/2000/svg"><g fill-rule="evenodd"><path d="m120.126 69.24c-1.141.19-2.761.7-3.6 1.133-.839.432-2.836 1.081-4.436 1.441-1.781.401-3.37 1.041-4.094 1.651-.651.548-1.862 1.179-2.69 1.403s-1.956.811-2.506 1.306c-.55.494-1.72 1.322-2.6 1.839-2.454 1.442-8.34 6.783-9.573 8.687-.605.935-1.247 1.7-1.426 1.7s-.82.855-1.426 1.9c-.605 1.045-1.613 2.491-2.238 3.214s-1.134 1.533-1.131 1.8-.616 1.746-1.377 3.286c-.76 1.54-1.854 4.42-2.431 6.4s-1.304 4.482-1.616 5.56c-1.518 5.241-1.057 18.186.806 22.611.539 1.28 1.268 3.598 1.621 5.15.354 1.553.894 3.033 1.202 3.288.307.255.934 1.466 1.392 2.692.459 1.225 1.282 2.76 1.83 3.411s1.286 1.747 1.641 2.436c1.379 2.676 9.402 11.049 11.726 12.238.55.282 1.45.93 2 1.441s2.08 1.405 3.4 1.986 2.698 1.324 3.063 1.65c.364.326 1.704.866 2.978 1.198 1.273.333 3.174 1.04 4.223 1.571 7.206 3.652 31.832 1.744 34.565-2.678.173-.28-1.102-1.619-5.829-6.123-1.531-1.458-3.429-1.509-6.8-.182-2.432.957-12.443.752-15.4-.315-1.32-.477-3.78-1.237-5.467-1.69s-3.737-1.278-4.556-1.834c-.819-.555-1.723-1.01-2.008-1.01-.286 0-1.352-.72-2.369-1.6s-1.973-1.604-2.124-1.61c-.67-.024-8.076-7.684-8.076-8.353 0-.225-.527-1.009-1.171-1.743s-1.484-2.135-1.867-3.114c-.382-.979-1.003-2.23-1.38-2.78s-.999-2.35-1.382-4c-.382-1.65-1.053-4.44-1.489-6.2-.982-3.962-1.05-9.23-.158-12.296.356-1.225.999-3.977 1.429-6.115.43-2.137 1.044-4.179 1.365-4.538.321-.358 1.048-1.706 1.616-2.996.568-1.289 1.573-2.96 2.235-3.713.661-.754 1.202-1.612 1.202-1.908 0-.297.63-1.02 1.4-1.607s1.4-1.314 1.4-1.615.632-.938 1.405-1.415c.773-.478 1.588-1.211 1.812-1.629s.986-1.056 1.695-1.418c.708-.363 1.964-1.264 2.789-2.005.826-.74 1.756-1.345 2.067-1.345s1.732-.619 3.157-1.375 3.735-1.576 5.133-1.822c1.398-.245 3.871-.813 5.495-1.261 4.83-1.331 19.419.395 22.029 2.606.34.288 1.656.935 2.925 1.437s2.413 1.086 2.544 1.297c.13.212 1.217 1.011 2.414 1.777 2.438 1.56 8.292 7.334 9.198 9.072.324.622 1.208 1.941 1.963 2.931.756.989 1.374 2.079 1.374 2.42s.525 1.543 1.168 2.669c.643 1.13 1.365 3.216 1.608 4.649.242 1.43.816 4.173 1.276 6.096 1.042 4.361.894 7.154-.808 15.219-1.458 6.908-1.473 6.839 2.216 10.527l2.236 2.236 1.595-.719c1.964-.886 2.567-1.785 2.923-4.359.152-1.1.697-3.08 1.212-4.4 2.337-5.987 2.619-20.78.473-24.789-.239-.445-.838-2.398-1.332-4.339-.493-1.941-1.344-4.191-1.889-5-.546-.81-1.214-2.192-1.484-3.072-.271-.88-.808-1.96-1.194-2.4s-1.203-1.61-1.816-2.6c-3.682-5.947-13.364-14.724-17.984-16.303-.88-.301-2.236-.983-3.013-1.516s-2.792-1.322-4.477-1.753-3.572-1.047-4.195-1.368c-2.658-1.375-16.489-2.005-22.389-1.02m140.274.115c-1.21.268-2.74.767-3.4 1.107-.66.341-2.451.928-3.981 1.304-1.581.389-3.47 1.19-4.378 1.859-.879.646-1.94 1.175-2.358 1.175-.862 0-3.083 1.212-3.083 1.683 0 .171-.958.851-2.13 1.512-3.424 1.932-11.461 10.052-13.068 13.201-.409.802-1.039 1.702-1.399 2.002-.829.687-1.803 2.551-1.803 3.447 0 .377-.528 1.511-1.173 2.52s-1.382 2.735-1.637 3.835c-.256 1.1-1.024 3.62-1.706 5.6-2.118 6.144-1.757 22.028.564 24.853.205.25.637 1.835.96 3.522.744 3.89.99 4.322 2.965 5.213l1.621.731 1.954-1.76c1.074-.967 2.379-2.522 2.9-3.455l.946-1.696-1.151-5.504c-2.064-9.872-2.064-9.817-.088-19.467.581-2.839 1.417-5.745 1.857-6.457s1.022-1.906 1.294-2.655c1.221-3.363 10.255-14.325 11.806-14.325.22 0 1.272-.72 2.337-1.6s2.15-1.6 2.41-1.6c.261 0 1.641-.619 3.066-1.375s3.735-1.578 5.133-1.826c1.398-.249 3.968-.812 5.71-1.251 5.416-1.367 18.966.369 22.095 2.83.54.425 1.851 1.061 2.913 1.414 1.061.353 2.266 1.013 2.677 1.467s1.377 1.148 2.147 1.542c1.529.781 8.8 7.869 8.8 8.578 0 .241.546 1.101 1.214 1.911.667.81 1.667 2.426 2.221 3.591.555 1.166 1.276 2.61 1.604 3.21s.85 2.417 1.16 4.038.932 4.276 1.382 5.901c1.037 3.739 1.042 7.617.017 11.894-.439 1.828-1.05 4.538-1.36 6.022-.551 2.642-3.829 10.154-4.654 10.664-.229.141-.842.931-1.361 1.754-2.307 3.654-9.682 10.434-12.662 11.639-.749.303-1.991.951-2.761 1.441s-3.2 1.378-5.4 1.974-4.9 1.344-6 1.662c-2.571.743-11.716.485-13.8-.388-3.687-1.546-4.324-1.357-8.348 2.48-4.426 4.22-4.412 3.873-.24 5.942 6.389 3.168 25.34 3.676 30.788.824.88-.461 2.86-1.188 4.4-1.617 1.54-.428 3.076-1.028 3.414-1.334.337-.305 1.597-.99 2.8-1.523 1.202-.532 2.963-1.574 3.912-2.316 3.953-3.087 9.046-7.794 9.779-9.037.433-.732 1.125-1.513 1.539-1.735.414-.221 1.134-1.162 1.599-2.089.465-.928 1.268-2.14 1.785-2.693.518-.553 1.225-1.813 1.573-2.8.347-.987 1.068-2.424 1.6-3.194.533-.77 1.234-2.66 1.559-4.2s.95-3.61 1.388-4.6c1.884-4.256 2.311-19.407.665-23.6-.388-.99-1.124-3.358-1.635-5.263-.512-1.905-1.462-4.425-2.114-5.6-.651-1.175-1.31-2.587-1.464-3.137-.155-.55-.763-1.63-1.352-2.4s-1.412-1.94-1.827-2.6c-1.845-2.928-6.659-8.025-10.097-10.692-4.507-3.496-6.407-4.751-7.735-5.109-.775-.21-2.003-.819-2.728-1.354-.726-.535-2.611-1.285-4.19-1.665-1.579-.381-3.507-1.011-4.284-1.4-3.139-1.572-17.799-2.22-23.187-1.025m-132.2 37.86c-12.835 1.723-16.139 18.332-4.934 24.801l3.467 2.001 3.933-.042c5.252-.055 4.985-.211 11.238 6.544.163.176 2.015 1.976 4.117 4 2.101 2.025 3.942 4 4.091 4.39.148.39.589.825.979.967s2.726 2.337 5.191 4.879l4.482 4.621 1.744-.467c2.409-.644 5.337-3.583 5.597-5.619.207-1.615.258-1.559-20.005-21.933-3.773-3.794-4.912-5.184-4.952-6.042-.029-.613-.074-2.671-.1-4.573-.037-2.683-.205-3.63-.748-4.231-.385-.426-.701-1.03-.701-1.342-.01-3.777-8.218-8.65-13.399-7.954m140.521-.009c-.814.144-1.714.448-2 .675-.287.228-1.22.64-2.073.915-4.02 1.296-7.595 7.092-7.513 12.182.09 5.653.933 4.449-12.767 18.229-14.363 14.445-13.943 13.749-10.388 17.249 1.973 1.942 3.386 2.744 4.835 2.744.688 0 16.697-15.705 22.785-22.353 2.507-2.738 2.83-2.849 8.6-2.966 10.048-.203 16.696-10.217 12.402-18.681-2.801-5.522-8.687-8.912-13.881-7.994m-73.71 37.212c-1.314.206-2.934.634-3.6.95s-2.533.929-4.148 1.362c-1.621.434-3.711 1.344-4.665 2.029-.951.682-2.003 1.241-2.339 1.241s-1.433.712-2.439 1.582c-1.005.871-2.056 1.726-2.335 1.9-2.522 1.578-8.68 10.015-9.901 13.565-.437 1.27-1.074 2.737-1.416 3.258-2.501 3.817-2.363 20.608.211 25.653.457.896 1.076 2.757 1.376 4.135.638 2.933 1.23 4.527 1.815 4.889.231.142.701 1.229 1.046 2.414s1.092 2.841 1.662 3.68c.569.838 1.373 2.312 1.786 3.276.414.963 1.183 2.264 1.71 2.89s1.075 1.669 1.217 2.317.719 1.675 1.283 2.283c.563.607 1.474 1.927 2.024 2.931.55 1.005 1.408 2.277 1.906 2.827.497.55 1.2 1.54 1.562 2.2.361.66 1.464 2.19 2.451 3.4s2.362 3.01 3.056 4c1.16 1.655 2.212 2.921 5.666 6.824.694.783 2.161 2.448 3.26 3.7 2.462 2.803 5.427 3.317 6.825 1.183.394-.601 1.27-1.656 1.946-2.343.677-.687 1.86-1.986 2.63-2.886s1.99-2.321 2.711-3.157c.721-.837 1.891-2.304 2.6-3.262.709-.957 2.053-2.757 2.986-4 .934-1.242 2.014-2.788 2.4-3.434.387-.646 1.092-1.583 1.568-2.083.476-.499 1.279-1.681 1.785-2.625s1.399-2.257 1.984-2.917 1.177-1.681 1.315-2.269.704-1.608 1.258-2.266c.554-.659 1.443-2.157 1.976-3.331s1.339-2.674 1.791-3.334 1.117-2.1 1.478-3.2c.362-1.1 1.076-2.724 1.587-3.609.512-.885 1.141-2.595 1.399-3.8s.998-3.513 1.644-5.129c2.506-6.266 2.342-21.401-.276-25.396-.335-.511-.873-1.815-1.195-2.898-1.059-3.551-3.55-7.043-8.499-11.918-3.714-3.658-5.405-5.05-6.135-5.05-.362 0-1.431-.56-2.376-1.245-.967-.701-3.138-1.646-4.96-2.161-1.783-.503-4.024-1.208-4.98-1.566-2.12-.793-9.287-1.139-12.65-.61m14 16.239c1.094.692 2.647 1.592 3.45 2 1.911.971 5.354 4.224 6.197 5.854.366.708 1.246 2.131 1.955 3.163 2.857 4.153 2.841 16.855-.026 20.811-.524.723-1.214 1.855-1.534 2.515-.619 1.276-3.655 4.484-5.954 6.29-1.333 1.048-6.355 3.104-9.699 3.971-2.459.637-7.246.165-9.8-.967-1.21-.536-2.732-1.105-3.383-1.263-1.795-.437-9.001-6.778-9.028-7.944-.006-.268-.549-1.198-1.206-2.066-3.362-4.443-3.348-19.941.02-22.023.225-.139.792-1.005 1.261-1.925 1.203-2.36 4.711-5.733 6.998-6.727 1.066-.463 2.331-1.201 2.812-1.639 1.346-1.228 3.015-1.465 9.737-1.383l6.21.076zm-87.029 54.991c-2.1.187-4.89.717-6.2 1.179s-3.192 1.107-4.182 1.434c-3.002.991-9.358 4.327-11.207 5.883-.69.581-1.384 1.056-1.543 1.056-.67 0-10.85 10.413-10.85 11.099 0 .242-.616 1.247-1.369 2.234-1.612 2.11-4.826 8.661-5.235 10.667-.157.77-.836 3.02-1.51 5-2.23 6.555-2.083 19.574.289 25.6.519 1.32 1.074 3.197 1.232 4.17.158.974.986 3.098 1.84 4.719.854 1.622 1.553 3.179 1.553 3.46s.468.948 1.039 1.481c.571.534 1.405 1.69 1.851 2.57 1.785 3.513 9.122 10.962 12.764 12.958.96.526 2.213 1.387 2.784 1.914.57.527 1.674 1.134 2.452 1.349.777.214 2.064.907 2.859 1.539.985.782 2.307 1.31 4.148 1.654 1.487.279 3.873.97 5.303 1.536 4.053 1.605 19.131 1.595 23.472-.016 1.579-.586 3.919-1.275 5.2-1.531 1.28-.255 3.048-.965 3.928-1.577s2.32-1.339 3.2-1.617c.88-.277 2.14-1.003 2.8-1.613.66-.611 1.932-1.476 2.827-1.924.894-.447 1.884-1.126 2.2-1.508.315-.381 1.033-.979 1.596-1.329 1.649-1.025 7.62-7.866 8.758-10.035.403-.77 1.107-1.737 1.562-2.149.456-.412 1.102-1.689 1.436-2.837s1.007-2.597 1.497-3.22 1.286-2.676 1.769-4.563 1.294-4.511 1.802-5.831c1.603-4.164 1.413-16.899-.336-22.6-.709-2.31-1.572-5.248-1.919-6.528-.577-2.128-.774-2.393-2.303-3.077l-1.673-.749-2.157 2.174c-2.233 2.251-3.845 4.755-3.461 5.377.121.196.408 1.402.637 2.68.23 1.278.775 3.827 1.212 5.665.97 4.075 1.045 8.636.197 11.896-.348 1.341-.904 3.861-1.235 5.6-.627 3.295-1.313 5.362-1.779 5.362-.149 0-.6.945-1.002 2.1-.401 1.155-1.207 2.73-1.79 3.5-.584.77-1.396 1.94-1.805 2.6-.811 1.309-1.724 2.315-5.525 6.092-1.379 1.37-2.708 2.495-2.953 2.5-.245.004-1.145.571-2 1.259-.855.687-2.635 1.775-3.955 2.415-1.32.641-2.859 1.421-3.42 1.733-4.057 2.259-16.14 3.526-21.502 2.255-1.913-.453-4.504-1.022-5.758-1.263-1.254-.242-2.96-.901-3.791-1.465-.832-.564-2.203-1.27-3.047-1.568-.845-.298-2.276-1.175-3.181-1.95-.905-.774-1.882-1.408-2.171-1.408-.696 0-3.733-2.843-6.409-6-3.024-3.567-4.19-5.256-5.182-7.509-.555-1.26-1.265-2.577-1.578-2.927-.312-.349-.933-2.329-1.378-4.4-.446-2.07-1.118-4.664-1.494-5.764-1.035-3.029-.932-10.335.198-14 .475-1.54 1.064-3.97 1.309-5.4s.796-3.087 1.224-3.682 1.149-2.024 1.602-3.174c.811-2.057 1.727-3.373 4.553-6.544 4.868-5.461 7.623-7.82 11.025-9.439.99-.471 2.195-1.217 2.678-1.658.482-.44 2.372-1.21 4.2-1.711 1.827-.501 4.132-1.24 5.122-1.644 2.589-1.054 14.171-1.088 16.708-.048 3.251 1.332 4.573.869 8.426-2.954.806-.799 1.871-1.661 2.366-1.914 1.338-.684 1.129-1.096-1.368-2.693-4.478-2.864-13.737-3.92-25.35-2.891m141.26-.027c-4.723.386-6.793.943-9.942 2.674-3.021 1.66-3.016 1.608-.4 4.085 5.25 4.971 5.42 5.026 10.7 3.433 3.573-1.079 12.915-.663 16.511.735 1.492.58 3.562 1.24 4.6 1.467 1.039.227 2.348.745 2.909 1.151.56.407 2 1.234 3.2 1.84 1.199.606 2.766 1.572 3.483 2.147 3.368 2.707 5.528 4.627 5.858 5.209.198.351 1.098 1.485 2 2.52 3.058 3.51 3.783 4.561 4.567 6.626.431 1.133 1.06 2.337 1.399 2.676.338.339.832 1.651 1.097 2.916s.924 4.073 1.465 6.24c1.159 4.642 1.293 10.048.333 13.46-.341 1.21-.907 3.55-1.259 5.2-.688 3.23-3.524 9.483-5.623 12.4-2.443 3.395-8.359 9.572-9.185 9.59-.245.006-1.145.573-2 1.261-.855.687-2.635 1.775-3.955 2.415-1.32.641-2.859 1.421-3.42 1.733-4.057 2.259-16.14 3.526-21.502 2.255-1.913-.453-4.504-1.022-5.758-1.263-1.254-.242-2.963-.903-3.799-1.471-.836-.567-2.06-1.219-2.721-1.448-2.238-.778-8.165-5.007-10.13-7.229-4.286-4.844-6.364-7.742-7.506-10.469-.466-1.114-1.153-2.491-1.526-3.06-.373-.568-1.029-2.717-1.458-4.774s-1.044-4.91-1.366-6.34c-.798-3.54-.756-6.171.163-10.304 2.497-11.228 2.544-10.757-1.475-14.799-2.082-2.095-2.107-2.106-3.4-1.565-1.857.776-2.167 1.289-3.331 5.502-.572 2.071-1.363 4.936-1.759 6.366-1.645 5.954-1.379 16.536.545 21.646.531 1.413 1.189 3.703 1.462 5.09.273 1.388.942 3.179 1.487 3.981.544.803 1.236 2.29 1.538 3.305.301 1.016.929 2.191 1.395 2.612.465.421 1.188 1.437 1.607 2.256.716 1.404 2.371 3.497 5.849 7.399 1.619 1.816 4.29 3.988 7.272 5.911 1.023.66 2.25 1.596 2.726 2.079s1.57 1.069 2.432 1.301 2.215.937 3.007 1.566c.904.718 2.33 1.319 3.828 1.614 1.314.259 3.705.937 5.314 1.507 2.653.94 3.634 1.054 10.526 1.219 7.977.192 9.241.042 15.6-1.858 1.54-.46 3.536-1.013 4.436-1.23.899-.217 2.133-.822 2.742-1.346.609-.523 1.811-1.162 2.671-1.42.861-.257 2.146-.97 2.858-1.584.711-.613 1.923-1.46 2.693-1.882.77-.421 2.076-1.351 2.901-2.066.826-.715 1.671-1.3 1.878-1.3.206 0 .686-.526 1.066-1.169.38-.642 1.09-1.382 1.579-1.644.488-.261 1.095-.93 1.349-1.487.253-.556.908-1.363 1.455-1.793.547-.431 1.373-1.531 1.836-2.445s1.448-2.338 2.189-3.163c.741-.826 1.347-1.753 1.347-2.06s.564-1.611 1.253-2.898c.688-1.288 1.664-3.871 2.167-5.741s1.324-4.48 1.824-5.8c1.218-3.214 1.393-16.934.264-20.6-.373-1.21-1.152-3.82-1.732-5.8-1.191-4.069-3.699-9.498-5.659-12.248-.724-1.016-1.317-1.97-1.317-2.119 0-.404-6.765-7.937-7.753-8.633-.468-.33-1.422-1.185-2.119-1.9-.696-.715-1.519-1.3-1.828-1.3-.308 0-.962-.427-1.452-.949-.491-.522-1.647-1.278-2.57-1.68s-2.398-1.223-3.278-1.826c-.88-.602-2.68-1.398-4-1.768-1.32-.371-2.602-.835-2.849-1.032-2.237-1.785-13.566-2.72-23.309-1.924m-107.888 17.947c-3.055 3.062-5.734 5.769-5.954 6.017-.22.247-2.022 2.016-4.005 3.932-1.982 1.916-4.113 4.151-4.735 4.967-.622.817-1.446 1.585-1.831 1.707-.386.122-.948.683-1.249 1.247-.97 1.812-1.987 2.03-9.988 2.142-5.236.074-10.992 6.909-10.992 13.053 0 8.526 9.603 15.862 16.6 12.681.99-.45 2.236-.952 2.77-1.115 1.012-.31 4.83-3.663 4.83-4.242 0-.183.46-1.339 1.022-2.569.864-1.887 1.035-2.885 1.1-6.411l.078-4.176 3.4-3.362c1.87-1.849 5.859-5.854 8.864-8.9 3.005-3.047 7.1-7.15 9.1-9.119 3.168-3.119 3.636-3.754 3.636-4.941 0-2.295-4.102-6.275-6.646-6.449-.246-.016-2.946 2.475-6 5.538m82.074-5.149c-.644.193-2.142 1.302-3.328 2.466-3.522 3.456-3.905 2.829 10.699 17.508 10.798 10.852 12.408 12.628 12.455 13.735.03.7.088 2.712.129 4.472.056 2.398.294 3.621.946 4.881.479.924.871 1.842.871 2.039 0 .601 4.698 4.88 5.358 4.88.34 0 1.353.384 2.253.852 2.115 1.103 5.486 1.124 7.312.046.716-.422 1.781-.888 2.368-1.035 1.346-.338 4.905-3.736 5.303-5.063.166-.55.529-1.27.809-1.6 2.742-3.238.362-12.233-4.003-15.124-4.023-2.665-4.593-2.844-9.503-2.991l-4.579-.138-12.579-12.673c-6.919-6.971-12.75-12.659-12.959-12.64s-.907.192-1.552.385" fill="#f1f6fa"/><path d="m17.68 8.48c-.264.264-.48.871-.48 1.349 0 .708-.304.917-1.644 1.132-1.495.239-1.627.355-1.452 1.273.248 1.293-.577 2.118-1.87 1.87-.918-.175-1.034-.043-1.273 1.452-.195 1.215-.45 1.644-.979 1.644-.394 0-1.001.109-1.349.243-.681.261-1.003 363.356-.323 364.425.164.258.777.589 1.363.736.812.204 1.146.615 1.408 1.731.299 1.27.516 1.482 1.632 1.59 1.125.11 1.287.272 1.287 1.286 0 1.232.9 1.989 2.366 1.989.561 0 .903.346 1.088 1.1.148.605.466 1.232.708 1.394 1.004.673 360.135.352 360.809-.323.346-.345.629-.975.629-1.4 0-.549.279-.771.967-.771 1.737 0 2.233-.409 2.233-1.843 0-1.22.113-1.357 1.12-1.357 1.405 0 2.08-.656 2.08-2.022 0-.854.253-1.135 1.293-1.433 1.144-.328 1.328-.583 1.602-2.216.655-3.907.166-362.32-.495-362.737-.33-.209-.994-.383-1.476-.386-.722-.005-.898-.269-1-1.506-.106-1.28-.27-1.509-1.124-1.561-.55-.033-1.225-.078-1.5-.1-.294-.023-.5-.598-.5-1.396 0-1.434-.496-1.843-2.233-1.843-.687 0-.967-.222-.967-.767 0-.422-.109-1.052-.243-1.4-.321-.836-360.841-.989-361.677-.153m121.338 60.757c1.301.241 2.875.701 3.497 1.023.623.321 2.51.937 4.195 1.368s3.7 1.22 4.477 1.753 2.133 1.215 3.013 1.516c4.62 1.579 14.302 10.356 17.984 16.303.613.99 1.43 2.16 1.816 2.6s.923 1.52 1.194 2.4c.27.88.938 2.262 1.484 3.072.545.809 1.396 3.059 1.889 5 .494 1.941 1.093 3.894 1.332 4.339 2.146 4.009 1.864 18.802-.473 24.789-.515 1.32-1.06 3.3-1.212 4.4-.356 2.574-.959 3.473-2.923 4.359l-1.595.719-2.236-2.236c-3.689-3.688-3.674-3.619-2.216-10.527 1.702-8.065 1.85-10.858.808-15.219-.46-1.923-1.034-4.666-1.276-6.096-.243-1.433-.965-3.519-1.608-4.649-.643-1.126-1.168-2.328-1.168-2.669s-.618-1.431-1.374-2.42c-.755-.99-1.639-2.309-1.963-2.931-.906-1.738-6.76-7.512-9.198-9.072-1.197-.766-2.284-1.565-2.414-1.777-.131-.211-1.275-.795-2.544-1.297s-2.585-1.149-2.925-1.437c-2.61-2.211-17.199-3.937-22.029-2.606-1.624.448-4.097 1.016-5.495 1.261-1.398.246-3.708 1.066-5.133 1.822s-2.846 1.375-3.157 1.375-1.241.605-2.067 1.345c-.825.741-2.081 1.642-2.789 2.005-.709.362-1.471 1-1.695 1.418s-1.039 1.151-1.812 1.629c-.773.477-1.405 1.114-1.405 1.415s-.63 1.028-1.4 1.615-1.4 1.31-1.4 1.607c0 .296-.541 1.154-1.202 1.908-.662.753-1.667 2.424-2.235 3.713-.568 1.29-1.295 2.638-1.616 2.996-.321.359-.935 2.401-1.365 4.538-.43 2.138-1.073 4.89-1.429 6.115-.892 3.066-.824 8.334.158 12.296.436 1.76 1.107 4.55 1.489 6.2.383 1.65 1.005 3.45 1.382 4s.998 1.801 1.38 2.78c.383.979 1.223 2.38 1.867 3.114s1.171 1.518 1.171 1.743c0 .669 7.406 8.329 8.076 8.353.151.006 1.107.73 2.124 1.61s2.083 1.6 2.369 1.6c.285 0 1.189.455 2.008 1.01.819.556 2.869 1.381 4.556 1.834s4.147 1.213 5.467 1.69c2.957 1.067 12.968 1.272 15.4.315 3.371-1.327 5.269-1.276 6.8.182 4.727 4.504 6.002 5.843 5.829 6.123-2.733 4.422-27.359 6.33-34.565 2.678-1.049-.531-2.95-1.238-4.223-1.571-1.274-.332-2.614-.872-2.978-1.198-.365-.326-1.743-1.069-3.063-1.65s-2.85-1.475-3.4-1.986-1.45-1.159-2-1.441c-2.324-1.189-10.347-9.562-11.726-12.238-.355-.689-1.093-1.785-1.641-2.436s-1.371-2.186-1.83-3.411c-.458-1.226-1.085-2.437-1.392-2.692-.308-.255-.848-1.735-1.202-3.288-.353-1.552-1.082-3.87-1.621-5.15-1.863-4.425-2.324-17.37-.806-22.611.312-1.078 1.039-3.58 1.616-5.56s1.671-4.86 2.431-6.4c.761-1.54 1.38-3.019 1.377-3.286s.506-1.077 1.131-1.8 1.633-2.169 2.238-3.214c.606-1.045 1.247-1.9 1.426-1.9s.821-.765 1.426-1.7c1.233-1.904 7.119-7.245 9.573-8.687.88-.517 2.05-1.345 2.6-1.839.55-.495 1.678-1.082 2.506-1.306s2.039-.855 2.69-1.403c.724-.61 2.313-1.25 4.094-1.651 1.6-.36 3.597-1.009 4.436-1.441 2.874-1.482 16.811-2.186 22.492-1.136m140.796-.001c1.298.24 2.996.755 3.773 1.144s2.705 1.019 4.284 1.4c1.579.38 3.464 1.13 4.19 1.665.725.535 1.953 1.144 2.728 1.354 1.328.358 3.228 1.613 7.735 5.109 3.438 2.667 8.252 7.764 10.097 10.692.415.66 1.238 1.83 1.827 2.6s1.197 1.85 1.352 2.4c.154.55.813 1.962 1.464 3.137.652 1.175 1.602 3.695 2.114 5.6.511 1.905 1.247 4.273 1.635 5.263 1.646 4.193 1.219 19.344-.665 23.6-.438.99-1.063 3.06-1.388 4.6s-1.026 3.43-1.559 4.2c-.532.77-1.253 2.207-1.6 3.194-.348.987-1.055 2.247-1.573 2.8-.517.553-1.32 1.765-1.785 2.693-.465.927-1.185 1.868-1.599 2.089-.414.222-1.106 1.003-1.539 1.735-.733 1.243-5.826 5.95-9.779 9.037-.949.742-2.71 1.784-3.912 2.316-1.203.533-2.463 1.218-2.8 1.523-.338.306-1.874.906-3.414 1.334-1.54.429-3.52 1.156-4.4 1.617-5.448 2.852-24.399 2.344-30.788-.824-4.172-2.069-4.186-1.722.24-5.942 4.024-3.837 4.661-4.026 8.348-2.48 2.084.873 11.229 1.131 13.8.388 1.1-.318 3.8-1.066 6-1.662s4.63-1.484 5.4-1.974 2.012-1.138 2.761-1.441c2.98-1.205 10.355-7.985 12.662-11.639.519-.823 1.132-1.613 1.361-1.754.825-.51 4.103-8.022 4.654-10.664.31-1.484.921-4.194 1.36-6.022 1.025-4.277 1.02-8.155-.017-11.894-.45-1.625-1.072-4.28-1.382-5.901s-.832-3.438-1.16-4.038-1.049-2.044-1.604-3.21c-.554-1.165-1.554-2.781-2.221-3.591-.668-.81-1.214-1.67-1.214-1.911 0-.709-7.271-7.797-8.8-8.578-.77-.394-1.736-1.088-2.147-1.542s-1.616-1.114-2.677-1.467c-1.062-.353-2.373-.989-2.913-1.414-3.129-2.461-16.679-4.197-22.095-2.83-1.742.439-4.312 1.002-5.71 1.251-1.398.248-3.708 1.07-5.133 1.826s-2.805 1.375-3.066 1.375c-.26 0-1.345.72-2.41 1.6s-2.117 1.6-2.337 1.6c-1.551 0-10.585 10.962-11.806 14.325-.272.749-.854 1.943-1.294 2.655s-1.276 3.618-1.857 6.457c-1.976 9.65-1.976 9.595.088 19.467l1.151 5.504-.946 1.696c-.521.933-1.826 2.488-2.9 3.455l-1.954 1.76-1.621-.731c-1.975-.891-2.221-1.323-2.965-5.213-.323-1.687-.755-3.272-.96-3.522-2.321-2.825-2.682-18.709-.564-24.853.682-1.98 1.45-4.5 1.706-5.6.255-1.1.992-2.826 1.637-3.835s1.173-2.143 1.173-2.52c0-.896.974-2.76 1.803-3.447.36-.3.99-1.2 1.399-2.002 1.607-3.149 9.644-11.269 13.068-13.201 1.172-.661 2.13-1.341 2.13-1.512 0-.471 2.221-1.683 3.083-1.683.418 0 1.479-.529 2.358-1.175.908-.669 2.797-1.47 4.378-1.859 1.53-.376 3.321-.963 3.981-1.304 3.017-1.557 16.965-2.307 22.814-1.226m-145.193 39.095c3.341 1.268 6.972 4.826 6.978 6.838 0 .312.316.916.701 1.342.543.601.711 1.548.748 4.231.026 1.902.071 3.96.1 4.573.04.858 1.179 2.248 4.952 6.042 20.263 20.374 20.212 20.318 20.005 21.933-.26 2.036-3.188 4.975-5.597 5.619l-1.744.467-4.482-4.621c-2.465-2.542-4.801-4.737-5.191-4.879s-.831-.577-.979-.967c-.149-.39-1.99-2.365-4.091-4.39-2.102-2.024-3.954-3.824-4.117-4-6.253-6.755-5.986-6.599-11.238-6.544l-3.933.042-3.467-2.001c-14.413-8.321-4.216-29.591 11.355-23.685m141.854.56c12.651 6.447 8.068 24.7-6.275 24.99-5.77.117-6.093.228-8.6 2.966-6.088 6.648-22.097 22.353-22.785 22.353-1.449 0-2.862-.802-4.835-2.744-3.555-3.5-3.975-2.804 10.388-17.249 13.7-13.78 12.857-12.576 12.767-18.229-.082-5.09 3.493-10.886 7.513-12.182.853-.275 1.786-.687 2.073-.915 1.798-1.43 5.773-1.018 9.754 1.01m-68.814 36.137c.956.358 3.197 1.063 4.98 1.566 1.822.515 3.993 1.46 4.96 2.161.945.685 2.014 1.245 2.376 1.245.73 0 2.421 1.392 6.135 5.05 4.949 4.875 7.44 8.367 8.499 11.918.322 1.083.86 2.387 1.195 2.898 2.618 3.995 2.782 19.13.276 25.396-.646 1.616-1.386 3.924-1.644 5.129s-.887 2.915-1.399 3.8c-.511.885-1.225 2.509-1.587 3.609-.361 1.1-1.026 2.54-1.478 3.2s-1.258 2.16-1.791 3.334-1.422 2.672-1.976 3.331c-.554.658-1.12 1.678-1.258 2.266s-.73 1.609-1.315 2.269-1.478 1.973-1.984 2.917-1.309 2.126-1.785 2.625c-.476.5-1.181 1.437-1.568 2.083-.386.646-1.466 2.192-2.4 3.434-.933 1.243-2.277 3.043-2.986 4-.709.958-1.879 2.425-2.6 3.262-.721.836-1.941 2.257-2.711 3.157s-1.953 2.199-2.63 2.886c-.676.687-1.552 1.742-1.946 2.343-1.398 2.134-4.363 1.62-6.825-1.183-1.099-1.252-2.566-2.917-3.26-3.7-3.454-3.903-4.506-5.169-5.666-6.824-.694-.99-2.069-2.79-3.056-4s-2.09-2.74-2.451-3.4c-.362-.66-1.065-1.65-1.562-2.2-.498-.55-1.356-1.822-1.906-2.827-.55-1.004-1.461-2.324-2.024-2.931-.564-.608-1.141-1.635-1.283-2.283s-.69-1.691-1.217-2.317-1.296-1.927-1.71-2.89c-.413-.964-1.217-2.438-1.786-3.276-.57-.839-1.317-2.495-1.662-3.68s-.815-2.272-1.046-2.414c-.585-.362-1.177-1.956-1.815-4.889-.3-1.378-.919-3.239-1.376-4.135-2.574-5.045-2.712-21.836-.211-25.653.342-.521.979-1.988 1.416-3.258 1.221-3.55 7.379-11.987 9.901-13.565.279-.174 1.33-1.029 2.335-1.9 1.006-.87 2.103-1.582 2.439-1.582s1.388-.559 2.339-1.241c.954-.685 3.044-1.595 4.665-2.029 1.615-.433 3.482-1.046 4.148-1.362 3.027-1.436 12.777-1.64 16.25-.34m-14.387 14.551c-.73.182-1.72.689-2.2 1.128-.481.438-1.746 1.176-2.812 1.639-2.287.994-5.795 4.367-6.998 6.727-.469.92-1.036 1.786-1.261 1.925-3.368 2.082-3.382 17.58-.02 22.023.657.868 1.2 1.798 1.206 2.066.027 1.166 7.233 7.507 9.028 7.944.651.158 2.173.727 3.383 1.263 2.554 1.132 7.341 1.604 9.8.967 3.344-.867 8.366-2.923 9.699-3.971 2.299-1.806 5.335-5.014 5.954-6.29.32-.66 1.01-1.792 1.534-2.515 2.867-3.956 2.883-16.658.026-20.811-.709-1.032-1.589-2.455-1.955-3.163-.843-1.63-4.286-4.883-6.197-5.854-.803-.408-2.356-1.308-3.45-2l-1.99-1.257-6.21-.076c-3.416-.042-6.808.073-7.537.255m-56.892 56.033c5.855.519 8.139 1.129 10.95 2.927 2.497 1.597 2.706 2.009 1.368 2.693-.495.253-1.56 1.115-2.366 1.914-3.853 3.823-5.175 4.286-8.426 2.954-2.537-1.04-14.119-1.006-16.708.048-.99.404-3.295 1.143-5.122 1.644-1.828.501-3.718 1.271-4.2 1.711-.483.441-1.688 1.187-2.678 1.658-3.402 1.619-6.157 3.978-11.025 9.439-2.826 3.171-3.742 4.487-4.553 6.544-.453 1.15-1.174 2.579-1.602 3.174s-.979 2.252-1.224 3.682-.834 3.86-1.309 5.4c-1.13 3.665-1.233 10.971-.198 14 .376 1.1 1.048 3.694 1.494 5.764.445 2.071 1.066 4.051 1.378 4.4.313.35 1.023 1.667 1.578 2.927.992 2.253 2.158 3.942 5.182 7.509 2.676 3.157 5.713 6 6.409 6 .289 0 1.266.634 2.171 1.408.905.775 2.336 1.652 3.181 1.95.844.298 2.215 1.004 3.047 1.568.831.564 2.537 1.223 3.791 1.465 1.254.241 3.845.81 5.758 1.263 5.362 1.271 17.445.004 21.502-2.255.561-.312 2.1-1.092 3.42-1.733 1.32-.64 3.1-1.728 3.955-2.415.855-.688 1.755-1.255 2-1.259.245-.005 1.574-1.13 2.953-2.5 3.801-3.777 4.714-4.783 5.525-6.092.409-.66 1.221-1.83 1.805-2.6.583-.77 1.389-2.345 1.79-3.5.402-1.155.853-2.1 1.002-2.1.466 0 1.152-2.067 1.779-5.362.331-1.739.887-4.259 1.235-5.6.848-3.26.773-7.821-.197-11.896-.437-1.838-.982-4.387-1.212-5.665-.229-1.278-.516-2.484-.637-2.68-.384-.622 1.228-3.126 3.461-5.377l2.157-2.174 1.673.749c1.529.684 1.726.949 2.303 3.077.347 1.28 1.21 4.218 1.919 6.528 1.749 5.701 1.939 18.436.336 22.6-.508 1.32-1.319 3.944-1.802 5.831s-1.279 3.94-1.769 4.563-1.163 2.072-1.497 3.22-.98 2.425-1.436 2.837c-.455.412-1.159 1.379-1.562 2.149-1.138 2.169-7.109 9.01-8.758 10.035-.563.35-1.281.948-1.596 1.329-.316.382-1.306 1.061-2.2 1.508-.895.448-2.167 1.313-2.827 1.924-.66.61-1.92 1.336-2.8 1.613-.88.278-2.32 1.005-3.2 1.617s-2.648 1.322-3.928 1.577c-1.281.256-3.621.945-5.2 1.531-4.341 1.611-19.419 1.621-23.472.016-1.43-.566-3.816-1.257-5.303-1.536-1.841-.344-3.163-.872-4.148-1.654-.795-.632-2.082-1.325-2.859-1.539-.778-.215-1.882-.822-2.452-1.349-.571-.527-1.824-1.388-2.784-1.914-3.642-1.996-10.979-9.445-12.764-12.958-.446-.88-1.28-2.036-1.851-2.57-.571-.533-1.039-1.2-1.039-1.481s-.699-1.838-1.553-3.46c-.854-1.621-1.682-3.745-1.84-4.719-.158-.973-.713-2.85-1.232-4.17-2.372-6.026-2.519-19.045-.289-25.6.674-1.98 1.353-4.23 1.51-5 .409-2.006 3.623-8.557 5.235-10.667.753-.987 1.369-1.992 1.369-2.234 0-.686 10.18-11.099 10.85-11.099.159 0 .853-.475 1.543-1.056 1.849-1.556 8.205-4.892 11.207-5.883.99-.327 2.872-.972 4.182-1.434 3.991-1.408 12.651-1.918 20.6-1.215m141.218.013c4.439.407 8.018 1.175 8.951 1.92.247.197 1.529.661 2.849 1.032 1.32.37 3.12 1.166 4 1.768.88.603 2.355 1.424 3.278 1.826s2.079 1.158 2.57 1.68c.49.522 1.144.949 1.452.949.309 0 1.132.585 1.828 1.3.697.715 1.651 1.57 2.119 1.9.988.696 7.753 8.229 7.753 8.633 0 .149.593 1.103 1.317 2.119 1.96 2.75 4.468 8.179 5.659 12.248.58 1.98 1.359 4.59 1.732 5.8 1.129 3.666.954 17.386-.264 20.6-.5 1.32-1.321 3.93-1.824 5.8s-1.479 4.453-2.167 5.741c-.689 1.287-1.253 2.591-1.253 2.898s-.606 1.234-1.347 2.06c-.741.825-1.726 2.249-2.189 3.163s-1.289 2.014-1.836 2.445c-.547.43-1.202 1.237-1.455 1.793-.254.557-.861 1.226-1.349 1.487-.489.262-1.199 1.002-1.579 1.644-.38.643-.86 1.169-1.066 1.169-.207 0-1.052.585-1.878 1.3-.825.715-2.131 1.645-2.901 2.066-.77.422-1.982 1.269-2.693 1.882-.712.614-1.997 1.327-2.858 1.584-.86.258-2.062.897-2.671 1.42-.609.524-1.843 1.129-2.742 1.346-.9.217-2.896.77-4.436 1.23-6.359 1.9-7.623 2.05-15.6 1.858-6.892-.165-7.873-.279-10.526-1.219-1.609-.57-4-1.248-5.314-1.507-1.498-.295-2.924-.896-3.828-1.614-.792-.629-2.145-1.334-3.007-1.566s-1.956-.818-2.432-1.301-1.703-1.419-2.726-2.079c-2.982-1.923-5.653-4.095-7.272-5.911-3.478-3.902-5.133-5.995-5.849-7.399-.419-.819-1.142-1.835-1.607-2.256-.466-.421-1.094-1.596-1.395-2.612-.302-1.015-.994-2.502-1.538-3.305-.545-.802-1.214-2.593-1.487-3.981-.273-1.387-.931-3.677-1.462-5.09-1.924-5.11-2.19-15.692-.545-21.646.396-1.43 1.187-4.295 1.759-6.366 2.005-7.259 5.87-7.433 9.566-.43.807 1.528.802 1.571-1.36 11.292-.919 4.133-.961 6.764-.163 10.304.322 1.43.937 4.283 1.366 6.34s1.085 4.206 1.458 4.774c.373.569 1.06 1.946 1.526 3.06 1.142 2.727 3.22 5.625 7.506 10.469 1.965 2.222 7.892 6.451 10.13 7.229.661.229 1.885.881 2.721 1.448.836.568 2.545 1.229 3.799 1.471 1.254.241 3.845.81 5.758 1.263 5.362 1.271 17.445.004 21.502-2.255.561-.312 2.1-1.092 3.42-1.733 1.32-.64 3.1-1.728 3.955-2.415.855-.688 1.755-1.255 2-1.261.826-.018 6.742-6.195 9.185-9.59 2.099-2.917 4.935-9.17 5.623-12.4.352-1.65.918-3.99 1.259-5.2.96-3.412.826-8.818-.333-13.46-.541-2.167-1.2-4.975-1.465-6.24s-.759-2.577-1.097-2.916c-.339-.339-.968-1.543-1.399-2.676-.784-2.065-1.509-3.116-4.567-6.626-.902-1.035-1.802-2.169-2-2.52-.33-.582-2.49-2.502-5.858-5.209-.717-.575-2.284-1.541-3.483-2.147-1.2-.606-2.64-1.433-3.2-1.84-.561-.406-1.87-.924-2.909-1.151-1.038-.227-3.108-.887-4.6-1.467-3.596-1.398-12.938-1.814-16.511-.735-5.28 1.593-5.45 1.538-10.7-3.433-2.616-2.477-2.621-2.425.4-4.085 4.972-2.733 13.456-3.665 24.3-2.67m-114.544 12.905c.691.259 2.086 1.396 3.1 2.529 2.862 3.195 2.703 3.936-1.792 8.361-2 1.969-6.095 6.072-9.1 9.119-3.005 3.046-6.994 7.051-8.864 8.9l-3.4 3.362-.078 4.176c-.065 3.526-.236 4.524-1.1 6.411-.562 1.23-1.022 2.386-1.022 2.569 0 .579-3.818 3.932-4.83 4.242-.534.163-1.78.665-2.77 1.115-6.997 3.181-16.6-4.155-16.6-12.681 0-6.144 5.756-12.979 10.992-13.053 8.001-.112 9.018-.33 9.988-2.142.301-.564.863-1.125 1.249-1.247.385-.122 1.209-.89 1.831-1.707.622-.816 2.753-3.051 4.735-4.967 1.983-1.916 3.785-3.685 4.005-3.932 2.252-2.531 11.612-11.578 11.954-11.555.245.017 1.011.242 1.702.5m88.883 12.144 12.579 12.673 4.579.138c4.91.147 5.48.326 9.503 2.991 4.365 2.891 6.745 11.886 4.003 15.124-.28.33-.643 1.05-.809 1.6-.398 1.327-3.957 4.725-5.303 5.063-.587.147-1.652.613-2.368 1.035-1.826 1.078-5.197 1.057-7.312-.046-.9-.468-1.913-.852-2.253-.852-.66 0-5.358-4.279-5.358-4.88 0-.197-.392-1.115-.871-2.039-.652-1.26-.89-2.483-.946-4.881-.041-1.76-.099-3.772-.129-4.472-.047-1.107-1.657-2.883-12.455-13.735-14.604-14.679-14.221-14.052-10.699-17.508 1.86-1.825 3.384-2.715 4.88-2.851.209-.019 6.04 5.669 12.959 12.64" fill="#34a8dc"/></g></svg>