<svg id="svg" version="1.1" xmlns="http://www.w3.org/2000/svg" xmlns:xlink="http://www.w3.org/1999/xlink" width="400" height="400" viewBox="0, 0, 400,400"><g id="svgg"><path id="path0" d="M120.126 69.240 C 118.985 69.430,117.365 69.940,116.526 70.373 C 115.687 70.805,113.690 71.454,112.090 71.814 C 110.309 72.215,108.720 72.855,107.996 73.465 C 107.345 74.013,106.134 74.644,105.306 74.868 C 104.478 75.092,103.350 75.679,102.800 76.174 C 102.250 76.668,101.080 77.496,100.200 78.013 C 97.746 79.455,91.860 84.796,90.627 86.700 C 90.022 87.635,89.380 88.400,89.201 88.400 C 89.022 88.400,88.381 89.255,87.775 90.300 C 87.170 91.345,86.162 92.791,85.537 93.514 C 84.912 94.237,84.403 95.047,84.406 95.314 C 84.409 95.581,83.790 97.060,83.029 98.600 C 82.269 100.140,81.175 103.020,80.598 105.000 C 80.021 106.980,79.294 109.482,78.982 110.560 C 77.464 115.801,77.925 128.746,79.788 133.171 C 80.327 134.451,81.056 136.769,81.409 138.321 C 81.763 139.874,82.303 141.354,82.611 141.609 C 82.918 141.864,83.545 143.075,84.003 144.301 C 84.462 145.526,85.285 147.061,85.833 147.712 C 86.381 148.363,87.119 149.459,87.474 150.148 C 88.853 152.824,96.876 161.197,99.200 162.386 C 99.750 162.668,100.650 163.316,101.200 163.827 C 101.750 164.338,103.280 165.232,104.600 165.813 C 105.920 166.394,107.298 167.137,107.663 167.463 C 108.027 167.789,109.367 168.329,110.641 168.661 C 111.914 168.994,113.815 169.701,114.864 170.232 C 122.070 173.884,146.696 171.976,149.429 167.554 C 149.602 167.274,148.327 165.935,143.600 161.431 C 142.069 159.973,140.171 159.922,136.800 161.249 C 134.368 162.206,124.357 162.001,121.400 160.934 C 120.080 160.457,117.620 159.697,115.933 159.244 C 114.246 158.791,112.196 157.966,111.377 157.410 C 110.558 156.855,109.654 156.400,109.369 156.400 C 109.083 156.400,108.017 155.680,107.000 154.800 C 105.983 153.920,105.027 153.196,104.876 153.190 C 104.206 153.166,96.800 145.506,96.800 144.837 C 96.800 144.612,96.273 143.828,95.629 143.094 C 94.985 142.360,94.145 140.959,93.762 139.980 C 93.380 139.001,92.759 137.750,92.382 137.200 C 92.005 136.650,91.383 134.850,91.000 133.200 C 90.618 131.550,89.947 128.760,89.511 127.000 C 88.529 123.038,88.461 117.770,89.353 114.704 C 89.709 113.479,90.352 110.727,90.782 108.589 C 91.212 106.452,91.826 104.410,92.147 104.051 C 92.468 103.693,93.195 102.345,93.763 101.055 C 94.331 99.766,95.336 98.095,95.998 97.342 C 96.659 96.588,97.200 95.730,97.200 95.434 C 97.200 95.137,97.830 94.414,98.600 93.827 C 99.370 93.240,100.000 92.513,100.000 92.212 C 100.000 91.911,100.632 91.274,101.405 90.797 C 102.178 90.319,102.993 89.586,103.217 89.168 C 103.441 88.750,104.203 88.112,104.912 87.750 C 105.620 87.387,106.876 86.486,107.701 85.745 C 108.527 85.005,109.457 84.400,109.768 84.400 C 110.079 84.400,111.500 83.781,112.925 83.025 C 114.350 82.269,116.660 81.449,118.058 81.203 C 119.456 80.958,121.929 80.390,123.553 79.942 C 128.383 78.611,142.972 80.337,145.582 82.548 C 145.922 82.836,147.238 83.483,148.507 83.985 C 149.776 84.487,150.920 85.071,151.051 85.282 C 151.181 85.494,152.268 86.293,153.465 87.059 C 155.903 88.619,161.757 94.393,162.663 96.131 C 162.987 96.753,163.871 98.072,164.626 99.062 C 165.382 100.051,166.000 101.141,166.000 101.482 C 166.000 101.823,166.525 103.025,167.168 104.151 C 167.811 105.281,168.533 107.367,168.776 108.800 C 169.018 110.230,169.592 112.973,170.052 114.896 C 171.094 119.257,170.946 122.050,169.244 130.115 C 167.786 137.023,167.771 136.954,171.460 140.642 L 173.696 142.878 175.291 142.159 C 177.255 141.273,177.858 140.374,178.214 137.800 C 178.366 136.700,178.911 134.720,179.426 133.400 C 181.763 127.413,182.045 112.620,179.899 108.611 C 179.660 108.166,179.061 106.213,178.567 104.272 C 178.074 102.331,177.223 100.081,176.678 99.272 C 176.132 98.462,175.464 97.080,175.194 96.200 C 174.923 95.320,174.386 94.240,174.000 93.800 C 173.614 93.360,172.797 92.190,172.184 91.200 C 168.502 85.253,158.820 76.476,154.200 74.897 C 153.320 74.596,151.964 73.914,151.187 73.381 C 150.410 72.848,148.395 72.059,146.710 71.628 C 145.025 71.197,143.138 70.581,142.515 70.260 C 139.857 68.885,126.026 68.255,120.126 69.240 M260.400 69.355 C 259.190 69.623,257.660 70.122,257.000 70.462 C 256.340 70.803,254.549 71.390,253.019 71.766 C 251.438 72.155,249.549 72.956,248.641 73.625 C 247.762 74.271,246.701 74.800,246.283 74.800 C 245.421 74.800,243.200 76.012,243.200 76.483 C 243.200 76.654,242.242 77.334,241.070 77.995 C 237.646 79.927,229.609 88.047,228.002 91.196 C 227.593 91.998,226.963 92.898,226.603 93.198 C 225.774 93.885,224.800 95.749,224.800 96.645 C 224.800 97.022,224.272 98.156,223.627 99.165 C 222.982 100.174,222.245 101.900,221.990 103.000 C 221.734 104.100,220.966 106.620,220.284 108.600 C 218.166 114.744,218.527 130.628,220.848 133.453 C 221.053 133.703,221.485 135.288,221.808 136.975 C 222.552 140.865,222.798 141.297,224.773 142.188 L 226.394 142.919 228.348 141.159 C 229.422 140.192,230.727 138.637,231.248 137.704 L 232.194 136.008 231.043 130.504 C 228.979 120.632,228.979 120.687,230.955 111.037 C 231.536 108.198,232.372 105.292,232.812 104.580 C 233.252 103.868,233.834 102.674,234.106 101.925 C 235.327 98.562,244.361 87.600,245.912 87.600 C 246.132 87.600,247.184 86.880,248.249 86.000 C 249.314 85.120,250.399 84.400,250.659 84.400 C 250.920 84.400,252.300 83.781,253.725 83.025 C 255.150 82.269,257.460 81.447,258.858 81.199 C 260.256 80.950,262.826 80.387,264.568 79.948 C 269.984 78.581,283.534 80.317,286.663 82.778 C 287.203 83.203,288.514 83.839,289.576 84.192 C 290.637 84.545,291.842 85.205,292.253 85.659 C 292.664 86.113,293.630 86.807,294.400 87.201 C 295.929 87.982,303.200 95.070,303.200 95.779 C 303.200 96.020,303.746 96.880,304.414 97.690 C 305.081 98.500,306.081 100.116,306.635 101.281 C 307.190 102.447,307.911 103.891,308.239 104.491 C 308.567 105.091,309.089 106.908,309.399 108.529 C 309.709 110.150,310.331 112.805,310.781 114.430 C 311.818 118.169,311.823 122.047,310.798 126.324 C 310.359 128.152,309.748 130.862,309.438 132.346 C 308.887 134.988,305.609 142.500,304.784 143.010 C 304.555 143.151,303.942 143.941,303.423 144.764 C 301.116 148.418,293.741 155.198,290.761 156.403 C 290.012 156.706,288.770 157.354,288.000 157.844 C 287.230 158.334,284.800 159.222,282.600 159.818 C 280.400 160.414,277.700 161.162,276.600 161.480 C 274.029 162.223,264.884 161.965,262.800 161.092 C 259.113 159.546,258.476 159.735,254.452 163.572 C 250.026 167.792,250.040 167.445,254.212 169.514 C 260.601 172.682,279.552 173.190,285.000 170.338 C 285.880 169.877,287.860 169.150,289.400 168.721 C 290.940 168.293,292.476 167.693,292.814 167.387 C 293.151 167.082,294.411 166.397,295.614 165.864 C 296.816 165.332,298.577 164.290,299.526 163.548 C 303.479 160.461,308.572 155.754,309.305 154.511 C 309.738 153.779,310.430 152.998,310.844 152.776 C 311.258 152.555,311.978 151.614,312.443 150.687 C 312.908 149.759,313.711 148.547,314.228 147.994 C 314.746 147.441,315.453 146.181,315.801 145.194 C 316.148 144.207,316.869 142.770,317.401 142.000 C 317.934 141.230,318.635 139.340,318.960 137.800 C 319.285 136.260,319.910 134.190,320.348 133.200 C 322.232 128.944,322.659 113.793,321.013 109.600 C 320.625 108.610,319.889 106.242,319.378 104.337 C 318.866 102.432,317.916 99.912,317.264 98.737 C 316.613 97.562,315.954 96.150,315.800 95.600 C 315.645 95.050,315.037 93.970,314.448 93.200 C 313.859 92.430,313.036 91.260,312.621 90.600 C 310.776 87.672,305.962 82.575,302.524 79.908 C 298.017 76.412,296.117 75.157,294.789 74.799 C 294.014 74.589,292.786 73.980,292.061 73.445 C 291.335 72.910,289.450 72.160,287.871 71.780 C 286.292 71.399,284.364 70.769,283.587 70.380 C 280.448 68.808,265.788 68.160,260.400 69.355 M128.200 107.215 C 115.365 108.938,112.061 125.547,123.266 132.016 L 126.733 134.017 130.666 133.975 C 135.918 133.920,135.651 133.764,141.904 140.519 C 142.067 140.695,143.919 142.495,146.021 144.519 C 148.122 146.544,149.963 148.519,150.112 148.909 C 150.260 149.299,150.701 149.734,151.091 149.876 C 151.481 150.018,153.817 152.213,156.282 154.755 L 160.764 159.376 162.508 158.909 C 164.917 158.265,167.845 155.326,168.105 153.290 C 168.312 151.675,168.363 151.731,148.100 131.357 C 144.327 127.563,143.188 126.173,143.148 125.315 C 143.119 124.702,143.074 122.644,143.048 120.742 C 143.011 118.059,142.843 117.112,142.300 116.511 C 141.915 116.085,141.599 115.481,141.599 115.169 C 141.589 111.392,133.381 106.519,128.200 107.215 M268.721 107.206 C 267.907 107.350,267.007 107.654,266.721 107.881 C 266.434 108.109,265.501 108.521,264.648 108.796 C 260.628 110.092,257.053 115.888,257.135 120.978 C 257.225 126.631,258.068 125.427,244.368 139.207 C 230.005 153.652,230.425 152.956,233.980 156.456 C 235.953 158.398,237.366 159.200,238.815 159.200 C 239.503 159.200,255.512 143.495,261.600 136.847 C 264.107 134.109,264.430 133.998,270.200 133.881 C 280.248 133.678,286.896 123.664,282.602 115.200 C 279.801 109.678,273.915 106.288,268.721 107.206 M195.011 144.418 C 193.697 144.624,192.077 145.052,191.411 145.368 C 190.745 145.684,188.878 146.297,187.263 146.730 C 185.642 147.164,183.552 148.074,182.598 148.759 C 181.647 149.441,180.595 150.000,180.259 150.000 C 179.923 150.000,178.826 150.712,177.820 151.582 C 176.815 152.453,175.764 153.308,175.485 153.482 C 172.963 155.060,166.805 163.497,165.584 167.047 C 165.147 168.317,164.510 169.784,164.168 170.305 C 161.667 174.122,161.805 190.913,164.379 195.958 C 164.836 196.854,165.455 198.715,165.755 200.093 C 166.393 203.026,166.985 204.620,167.570 204.982 C 167.801 205.124,168.271 206.211,168.616 207.396 C 168.961 208.581,169.708 210.237,170.278 211.076 C 170.847 211.914,171.651 213.388,172.064 214.352 C 172.478 215.315,173.247 216.616,173.774 217.242 C 174.301 217.868,174.849 218.911,174.991 219.559 C 175.133 220.207,175.710 221.234,176.274 221.842 C 176.837 222.449,177.748 223.769,178.298 224.773 C 178.848 225.778,179.706 227.050,180.204 227.600 C 180.701 228.150,181.404 229.140,181.766 229.800 C 182.127 230.460,183.230 231.990,184.217 233.200 C 185.204 234.410,186.579 236.210,187.273 237.200 C 188.433 238.855,189.485 240.121,192.939 244.024 C 193.633 244.807,195.100 246.472,196.199 247.724 C 198.661 250.527,201.626 251.041,203.024 248.907 C 203.418 248.306,204.294 247.251,204.970 246.564 C 205.647 245.877,206.830 244.578,207.600 243.678 C 208.370 242.778,209.590 241.357,210.311 240.521 C 211.032 239.684,212.202 238.217,212.911 237.259 C 213.620 236.302,214.964 234.502,215.897 233.259 C 216.831 232.017,217.911 230.471,218.297 229.825 C 218.684 229.179,219.389 228.242,219.865 227.742 C 220.341 227.243,221.144 226.061,221.650 225.117 C 222.156 224.173,223.049 222.860,223.634 222.200 C 224.219 221.540,224.811 220.519,224.949 219.931 C 225.087 219.343,225.653 218.323,226.207 217.665 C 226.761 217.006,227.650 215.508,228.183 214.334 C 228.716 213.160,229.522 211.660,229.974 211.000 C 230.426 210.340,231.091 208.900,231.452 207.800 C 231.814 206.700,232.528 205.076,233.039 204.191 C 233.551 203.306,234.180 201.596,234.438 200.391 C 234.696 199.186,235.436 196.878,236.082 195.262 C 238.588 188.996,238.424 173.861,235.806 169.866 C 235.471 169.355,234.933 168.051,234.611 166.968 C 233.552 163.417,231.061 159.925,226.112 155.050 C 222.398 151.392,220.707 150.000,219.977 150.000 C 219.615 150.000,218.546 149.440,217.601 148.755 C 216.634 148.054,214.463 147.109,212.641 146.594 C 210.858 146.091,208.617 145.386,207.661 145.028 C 205.541 144.235,198.374 143.889,195.011 144.418 M209.011 160.657 C 210.105 161.349,211.658 162.249,212.461 162.657 C 214.372 163.628,217.815 166.881,218.658 168.511 C 219.024 169.219,219.904 170.642,220.613 171.674 C 223.470 175.827,223.454 188.529,220.587 192.485 C 220.063 193.208,219.373 194.340,219.053 195.000 C 218.434 196.276,215.398 199.484,213.099 201.290 C 211.766 202.338,206.744 204.394,203.400 205.261 C 200.941 205.898,196.154 205.426,193.600 204.294 C 192.390 203.758,190.868 203.189,190.217 203.031 C 188.422 202.594,181.216 196.253,181.189 195.087 C 181.183 194.819,180.640 193.889,179.983 193.021 C 176.621 188.578,176.635 173.080,180.003 170.998 C 180.228 170.859,180.795 169.993,181.264 169.073 C 182.467 166.713,185.975 163.340,188.262 162.346 C 189.328 161.883,190.593 161.145,191.074 160.707 C 192.420 159.479,194.089 159.242,200.811 159.324 L 207.021 159.400 209.011 160.657 M121.982 215.648 C 119.882 215.835,117.092 216.365,115.782 216.827 C 114.472 217.289,112.590 217.934,111.600 218.261 C 108.598 219.252,102.242 222.588,100.393 224.144 C 99.703 224.725,99.009 225.200,98.850 225.200 C 98.180 225.200,88.000 235.613,88.000 236.299 C 88.000 236.541,87.384 237.546,86.631 238.533 C 85.019 240.643,81.805 247.194,81.396 249.200 C 81.239 249.970,80.560 252.220,79.886 254.200 C 77.656 260.755,77.803 273.774,80.175 279.800 C 80.694 281.120,81.249 282.997,81.407 283.970 C 81.565 284.944,82.393 287.068,83.247 288.689 C 84.101 290.311,84.800 291.868,84.800 292.149 C 84.800 292.430,85.268 293.097,85.839 293.630 C 86.410 294.164,87.244 295.320,87.690 296.200 C 89.475 299.713,96.812 307.162,100.454 309.158 C 101.414 309.684,102.667 310.545,103.238 311.072 C 103.808 311.599,104.912 312.206,105.690 312.421 C 106.467 312.635,107.754 313.328,108.549 313.960 C 109.534 314.742,110.856 315.270,112.697 315.614 C 114.184 315.893,116.570 316.584,118.000 317.150 C 122.053 318.755,137.131 318.745,141.472 317.134 C 143.051 316.548,145.391 315.859,146.672 315.603 C 147.952 315.348,149.720 314.638,150.600 314.026 C 151.480 313.414,152.920 312.687,153.800 312.409 C 154.680 312.132,155.940 311.406,156.600 310.796 C 157.260 310.185,158.532 309.320,159.427 308.872 C 160.321 308.425,161.311 307.746,161.627 307.364 C 161.942 306.983,162.660 306.385,163.223 306.035 C 164.872 305.010,170.843 298.169,171.981 296.000 C 172.384 295.230,173.088 294.263,173.543 293.851 C 173.999 293.439,174.645 292.162,174.979 291.014 C 175.313 289.866,175.986 288.417,176.476 287.794 C 176.966 287.171,177.762 285.118,178.245 283.231 C 178.728 281.344,179.539 278.720,180.047 277.400 C 181.650 273.236,181.460 260.501,179.711 254.800 C 179.002 252.490,178.139 249.552,177.792 248.272 C 177.215 246.144,177.018 245.879,175.489 245.195 L 173.816 244.446 171.659 246.620 C 169.426 248.871,167.814 251.375,168.198 251.997 C 168.319 252.193,168.606 253.399,168.835 254.677 C 169.065 255.955,169.610 258.504,170.047 260.342 C 171.017 264.417,171.092 268.978,170.244 272.238 C 169.896 273.579,169.340 276.099,169.009 277.838 C 168.382 281.133,167.696 283.200,167.230 283.200 C 167.081 283.200,166.630 284.145,166.228 285.300 C 165.827 286.455,165.021 288.030,164.438 288.800 C 163.854 289.570,163.042 290.740,162.633 291.400 C 161.822 292.709,160.909 293.715,157.108 297.492 C 155.729 298.862,154.400 299.987,154.155 299.992 C 153.910 299.996,153.010 300.563,152.155 301.251 C 151.300 301.938,149.520 303.026,148.200 303.666 C 146.880 304.307,145.341 305.087,144.780 305.399 C 140.723 307.658,128.640 308.925,123.278 307.654 C 121.365 307.201,118.774 306.632,117.520 306.391 C 116.266 306.149,114.560 305.490,113.729 304.926 C 112.897 304.362,111.526 303.656,110.682 303.358 C 109.837 303.060,108.406 302.183,107.501 301.408 C 106.596 300.634,105.619 300.000,105.330 300.000 C 104.634 300.000,101.597 297.157,98.921 294.000 C 95.897 290.433,94.731 288.744,93.739 286.491 C 93.184 285.231,92.474 283.914,92.161 283.564 C 91.849 283.215,91.228 281.235,90.783 279.164 C 90.337 277.094,89.665 274.500,89.289 273.400 C 88.254 270.371,88.357 263.065,89.487 259.400 C 89.962 257.860,90.551 255.430,90.796 254.000 C 91.041 252.570,91.592 250.913,92.020 250.318 C 92.448 249.723,93.169 248.294,93.622 247.144 C 94.433 245.087,95.349 243.771,98.175 240.600 C 103.043 235.139,105.798 232.780,109.200 231.161 C 110.190 230.690,111.395 229.944,111.878 229.503 C 112.360 229.063,114.250 228.293,116.078 227.792 C 117.905 227.291,120.210 226.552,121.200 226.148 C 123.789 225.094,135.371 225.060,137.908 226.100 C 141.159 227.432,142.481 226.969,146.334 223.146 C 147.140 222.347,148.205 221.485,148.700 221.232 C 150.038 220.548,149.829 220.136,147.332 218.539 C 142.854 215.675,133.595 214.619,121.982 215.648 M263.242 215.621 C 258.519 216.007,256.449 216.564,253.300 218.295 C 250.279 219.955,250.284 219.903,252.900 222.380 C 258.150 227.351,258.320 227.406,263.600 225.813 C 267.173 224.734,276.515 225.150,280.111 226.548 C 281.603 227.128,283.673 227.788,284.711 228.015 C 285.750 228.242,287.059 228.760,287.620 229.166 C 288.180 229.573,289.620 230.400,290.820 231.006 C 292.019 231.612,293.586 232.578,294.303 233.153 C 297.671 235.860,299.831 237.780,300.161 238.362 C 300.359 238.713,301.259 239.847,302.161 240.882 C 305.219 244.392,305.944 245.443,306.728 247.508 C 307.159 248.641,307.788 249.845,308.127 250.184 C 308.465 250.523,308.959 251.835,309.224 253.100 C 309.489 254.365,310.148 257.173,310.689 259.340 C 311.848 263.982,311.982 269.388,311.022 272.800 C 310.681 274.010,310.115 276.350,309.763 278.000 C 309.075 281.230,306.239 287.483,304.140 290.400 C 301.697 293.795,295.781 299.972,294.955 299.990 C 294.710 299.996,293.810 300.563,292.955 301.251 C 292.100 301.938,290.320 303.026,289.000 303.666 C 287.680 304.307,286.141 305.087,285.580 305.399 C 281.523 307.658,269.440 308.925,264.078 307.654 C 262.165 307.201,259.574 306.632,258.320 306.391 C 257.066 306.149,255.357 305.488,254.521 304.920 C 253.685 304.353,252.461 303.701,251.800 303.472 C 249.562 302.694,243.635 298.465,241.670 296.243 C 237.384 291.399,235.306 288.501,234.164 285.774 C 233.698 284.660,233.011 283.283,232.638 282.714 C 232.265 282.146,231.609 279.997,231.180 277.940 C 230.751 275.883,230.136 273.030,229.814 271.600 C 229.016 268.060,229.058 265.429,229.977 261.296 C 232.474 250.068,232.521 250.539,228.502 246.497 C 226.420 244.402,226.395 244.391,225.102 244.932 C 223.245 245.708,222.935 246.221,221.771 250.434 C 221.199 252.505,220.408 255.370,220.012 256.800 C 218.367 262.754,218.633 273.336,220.557 278.446 C 221.088 279.859,221.746 282.149,222.019 283.536 C 222.292 284.924,222.961 286.715,223.506 287.517 C 224.050 288.320,224.742 289.807,225.044 290.822 C 225.345 291.838,225.973 293.013,226.439 293.434 C 226.904 293.855,227.627 294.871,228.046 295.690 C 228.762 297.094,230.417 299.187,233.895 303.089 C 235.514 304.905,238.185 307.077,241.167 309.000 C 242.190 309.660,243.417 310.596,243.893 311.079 C 244.369 311.562,245.463 312.148,246.325 312.380 C 247.187 312.612,248.540 313.317,249.332 313.946 C 250.236 314.664,251.662 315.265,253.160 315.560 C 254.474 315.819,256.865 316.497,258.474 317.067 C 261.127 318.007,262.108 318.121,269.000 318.286 C 276.977 318.478,278.241 318.328,284.600 316.428 C 286.140 315.968,288.136 315.415,289.036 315.198 C 289.935 314.981,291.169 314.376,291.778 313.852 C 292.387 313.329,293.589 312.690,294.449 312.432 C 295.310 312.175,296.595 311.462,297.307 310.848 C 298.018 310.235,299.230 309.388,300.000 308.966 C 300.770 308.545,302.076 307.615,302.901 306.900 C 303.727 306.185,304.572 305.600,304.779 305.600 C 304.985 305.600,305.465 305.074,305.845 304.431 C 306.225 303.789,306.935 303.049,307.424 302.787 C 307.912 302.526,308.519 301.857,308.773 301.300 C 309.026 300.744,309.681 299.937,310.228 299.507 C 310.775 299.076,311.601 297.976,312.064 297.062 C 312.527 296.148,313.512 294.724,314.253 293.899 C 314.994 293.073,315.600 292.146,315.600 291.839 C 315.600 291.532,316.164 290.228,316.853 288.941 C 317.541 287.653,318.517 285.070,319.020 283.200 C 319.523 281.330,320.344 278.720,320.844 277.400 C 322.062 274.186,322.237 260.466,321.108 256.800 C 320.735 255.590,319.956 252.980,319.376 251.000 C 318.185 246.931,315.677 241.502,313.717 238.752 C 312.993 237.736,312.400 236.782,312.400 236.633 C 312.400 236.229,305.635 228.696,304.647 228.000 C 304.179 227.670,303.225 226.815,302.528 226.100 C 301.832 225.385,301.009 224.800,300.700 224.800 C 300.392 224.800,299.738 224.373,299.248 223.851 C 298.757 223.329,297.601 222.573,296.678 222.171 C 295.755 221.769,294.280 220.948,293.400 220.345 C 292.520 219.743,290.720 218.947,289.400 218.577 C 288.080 218.206,286.798 217.742,286.551 217.545 C 284.314 215.760,272.985 214.825,263.242 215.621 M155.354 233.568 C 152.299 236.630,149.620 239.337,149.400 239.585 C 149.180 239.832,147.378 241.601,145.395 243.517 C 143.413 245.433,141.282 247.668,140.660 248.484 C 140.038 249.301,139.214 250.069,138.829 250.191 C 138.443 250.313,137.881 250.874,137.580 251.438 C 136.610 253.250,135.593 253.468,127.592 253.580 C 122.356 253.654,116.600 260.489,116.600 266.633 C 116.600 275.159,126.203 282.495,133.200 279.314 C 134.190 278.864,135.436 278.362,135.970 278.199 C 136.982 277.889,140.800 274.536,140.800 273.957 C 140.800 273.774,141.260 272.618,141.822 271.388 C 142.686 269.501,142.857 268.503,142.922 264.977 L 143.000 260.801 146.400 257.439 C 148.270 255.590,152.259 251.585,155.264 248.539 C 158.269 245.492,162.364 241.389,164.364 239.420 C 167.532 236.301,168.000 235.666,168.000 234.479 C 168.000 232.184,163.898 228.204,161.354 228.030 C 161.108 228.014,158.408 230.505,155.354 233.568 M237.428 228.419 C 236.784 228.612,235.286 229.721,234.100 230.885 C 230.578 234.341,230.195 233.714,244.799 248.393 C 255.597 259.245,257.207 261.021,257.254 262.128 C 257.284 262.828,257.342 264.840,257.383 266.600 C 257.439 268.998,257.677 270.221,258.329 271.481 C 258.808 272.405,259.200 273.323,259.200 273.520 C 259.200 274.121,263.898 278.400,264.558 278.400 C 264.898 278.400,265.911 278.784,266.811 279.252 C 268.926 280.355,272.297 280.376,274.123 279.298 C 274.839 278.876,275.904 278.410,276.491 278.263 C 277.837 277.925,281.396 274.527,281.794 273.200 C 281.960 272.650,282.323 271.930,282.603 271.600 C 285.345 268.362,282.965 259.367,278.600 256.476 C 274.577 253.811,274.007 253.632,269.097 253.485 L 264.518 253.347 251.939 240.674 C 245.020 233.703,239.189 228.015,238.980 228.034 C 238.771 228.053,238.073 228.226,237.428 228.419 " stroke="none" fill="#f1f6fa" fill-rule="evenodd"></path><path id="path1" d="M17.680 8.480 C 17.416 8.744,17.200 9.351,17.200 9.829 C 17.200 10.537,16.896 10.746,15.556 10.961 C 14.061 11.200,13.929 11.316,14.104 12.234 C 14.352 13.527,13.527 14.352,12.234 14.104 C 11.316 13.929,11.200 14.061,10.961 15.556 C 10.766 16.771,10.511 17.200,9.982 17.200 C 9.588 17.200,8.981 17.309,8.633 17.443 C 7.952 17.704,7.630 380.799,8.310 381.868 C 8.474 382.126,9.087 382.457,9.673 382.604 C 10.485 382.808,10.819 383.219,11.081 384.335 C 11.380 385.605,11.597 385.817,12.713 385.925 C 13.838 386.035,14.000 386.197,14.000 387.211 C 14.000 388.443,14.900 389.200,16.366 389.200 C 16.927 389.200,17.269 389.546,17.454 390.300 C 17.602 390.905,17.920 391.532,18.162 391.694 C 19.166 392.367,378.297 392.046,378.971 391.371 C 379.317 391.026,379.600 390.396,379.600 389.971 C 379.600 389.422,379.879 389.200,380.567 389.200 C 382.304 389.200,382.800 388.791,382.800 387.357 C 382.800 386.137,382.913 386.000,383.920 386.000 C 385.325 386.000,386.000 385.344,386.000 383.978 C 386.000 383.124,386.253 382.843,387.293 382.545 C 388.437 382.217,388.621 381.962,388.895 380.329 C 389.550 376.422,389.061 18.009,388.400 17.592 C 388.070 17.383,387.406 17.209,386.924 17.206 C 386.202 17.201,386.026 16.937,385.924 15.700 C 385.818 14.420,385.654 14.191,384.800 14.139 C 384.250 14.106,383.575 14.061,383.300 14.039 C 383.006 14.016,382.800 13.441,382.800 12.643 C 382.800 11.209,382.304 10.800,380.567 10.800 C 379.880 10.800,379.600 10.578,379.600 10.033 C 379.600 9.611,379.491 8.981,379.357 8.633 C 379.036 7.797,18.516 7.644,17.680 8.480 M139.018 69.237 C 140.319 69.478,141.893 69.938,142.515 70.260 C 143.138 70.581,145.025 71.197,146.710 71.628 C 148.395 72.059,150.410 72.848,151.187 73.381 C 151.964 73.914,153.320 74.596,154.200 74.897 C 158.820 76.476,168.502 85.253,172.184 91.200 C 172.797 92.190,173.614 93.360,174.000 93.800 C 174.386 94.240,174.923 95.320,175.194 96.200 C 175.464 97.080,176.132 98.462,176.678 99.272 C 177.223 100.081,178.074 102.331,178.567 104.272 C 179.061 106.213,179.660 108.166,179.899 108.611 C 182.045 112.620,181.763 127.413,179.426 133.400 C 178.911 134.720,178.366 136.700,178.214 137.800 C 177.858 140.374,177.255 141.273,175.291 142.159 L 173.696 142.878 171.460 140.642 C 167.771 136.954,167.786 137.023,169.244 130.115 C 170.946 122.050,171.094 119.257,170.052 114.896 C 169.592 112.973,169.018 110.230,168.776 108.800 C 168.533 107.367,167.811 105.281,167.168 104.151 C 166.525 103.025,166.000 101.823,166.000 101.482 C 166.000 101.141,165.382 100.051,164.626 99.062 C 163.871 98.072,162.987 96.753,162.663 96.131 C 161.757 94.393,155.903 88.619,153.465 87.059 C 152.268 86.293,151.181 85.494,151.051 85.282 C 150.920 85.071,149.776 84.487,148.507 83.985 C 147.238 83.483,145.922 82.836,145.582 82.548 C 142.972 80.337,128.383 78.611,123.553 79.942 C 121.929 80.390,119.456 80.958,118.058 81.203 C 116.660 81.449,114.350 82.269,112.925 83.025 C 111.500 83.781,110.079 84.400,109.768 84.400 C 109.457 84.400,108.527 85.005,107.701 85.745 C 106.876 86.486,105.620 87.387,104.912 87.750 C 104.203 88.112,103.441 88.750,103.217 89.168 C 102.993 89.586,102.178 90.319,101.405 90.797 C 100.632 91.274,100.000 91.911,100.000 92.212 C 100.000 92.513,99.370 93.240,98.600 93.827 C 97.830 94.414,97.200 95.137,97.200 95.434 C 97.200 95.730,96.659 96.588,95.998 97.342 C 95.336 98.095,94.331 99.766,93.763 101.055 C 93.195 102.345,92.468 103.693,92.147 104.051 C 91.826 104.410,91.212 106.452,90.782 108.589 C 90.352 110.727,89.709 113.479,89.353 114.704 C 88.461 117.770,88.529 123.038,89.511 127.000 C 89.947 128.760,90.618 131.550,91.000 133.200 C 91.383 134.850,92.005 136.650,92.382 137.200 C 92.759 137.750,93.380 139.001,93.762 139.980 C 94.145 140.959,94.985 142.360,95.629 143.094 C 96.273 143.828,96.800 144.612,96.800 144.837 C 96.800 145.506,104.206 153.166,104.876 153.190 C 105.027 153.196,105.983 153.920,107.000 154.800 C 108.017 155.680,109.083 156.400,109.369 156.400 C 109.654 156.400,110.558 156.855,111.377 157.410 C 112.196 157.966,114.246 158.791,115.933 159.244 C 117.620 159.697,120.080 160.457,121.400 160.934 C 124.357 162.001,134.368 162.206,136.800 161.249 C 140.171 159.922,142.069 159.973,143.600 161.431 C 148.327 165.935,149.602 167.274,149.429 167.554 C 146.696 171.976,122.070 173.884,114.864 170.232 C 113.815 169.701,111.914 168.994,110.641 168.661 C 109.367 168.329,108.027 167.789,107.663 167.463 C 107.298 167.137,105.920 166.394,104.600 165.813 C 103.280 165.232,101.750 164.338,101.200 163.827 C 100.650 163.316,99.750 162.668,99.200 162.386 C 96.876 161.197,88.853 152.824,87.474 150.148 C 87.119 149.459,86.381 148.363,85.833 147.712 C 85.285 147.061,84.462 145.526,84.003 144.301 C 83.545 143.075,82.918 141.864,82.611 141.609 C 82.303 141.354,81.763 139.874,81.409 138.321 C 81.056 136.769,80.327 134.451,79.788 133.171 C 77.925 128.746,77.464 115.801,78.982 110.560 C 79.294 109.482,80.021 106.980,80.598 105.000 C 81.175 103.020,82.269 100.140,83.029 98.600 C 83.790 97.060,84.409 95.581,84.406 95.314 C 84.403 95.047,84.912 94.237,85.537 93.514 C 86.162 92.791,87.170 91.345,87.775 90.300 C 88.381 89.255,89.022 88.400,89.201 88.400 C 89.380 88.400,90.022 87.635,90.627 86.700 C 91.860 84.796,97.746 79.455,100.200 78.013 C 101.080 77.496,102.250 76.668,102.800 76.174 C 103.350 75.679,104.478 75.092,105.306 74.868 C 106.134 74.644,107.345 74.013,107.996 73.465 C 108.720 72.855,110.309 72.215,112.090 71.814 C 113.690 71.454,115.687 70.805,116.526 70.373 C 119.400 68.891,133.337 68.187,139.018 69.237 M279.814 69.236 C 281.112 69.476,282.810 69.991,283.587 70.380 C 284.364 70.769,286.292 71.399,287.871 71.780 C 289.450 72.160,291.335 72.910,292.061 73.445 C 292.786 73.980,294.014 74.589,294.789 74.799 C 296.117 75.157,298.017 76.412,302.524 79.908 C 305.962 82.575,310.776 87.672,312.621 90.600 C 313.036 91.260,313.859 92.430,314.448 93.200 C 315.037 93.970,315.645 95.050,315.800 95.600 C 315.954 96.150,316.613 97.562,317.264 98.737 C 317.916 99.912,318.866 102.432,319.378 104.337 C 319.889 106.242,320.625 108.610,321.013 109.600 C 322.659 113.793,322.232 128.944,320.348 133.200 C 319.910 134.190,319.285 136.260,318.960 137.800 C 318.635 139.340,317.934 141.230,317.401 142.000 C 316.869 142.770,316.148 144.207,315.801 145.194 C 315.453 146.181,314.746 147.441,314.228 147.994 C 313.711 148.547,312.908 149.759,312.443 150.687 C 311.978 151.614,311.258 152.555,310.844 152.776 C 310.430 152.998,309.738 153.779,309.305 154.511 C 308.572 155.754,303.479 160.461,299.526 163.548 C 298.577 164.290,296.816 165.332,295.614 165.864 C 294.411 166.397,293.151 167.082,292.814 167.387 C 292.476 167.693,290.940 168.293,289.400 168.721 C 287.860 169.150,285.880 169.877,285.000 170.338 C 279.552 173.190,260.601 172.682,254.212 169.514 C 250.040 167.445,250.026 167.792,254.452 163.572 C 258.476 159.735,259.113 159.546,262.800 161.092 C 264.884 161.965,274.029 162.223,276.600 161.480 C 277.700 161.162,280.400 160.414,282.600 159.818 C 284.800 159.222,287.230 158.334,288.000 157.844 C 288.770 157.354,290.012 156.706,290.761 156.403 C 293.741 155.198,301.116 148.418,303.423 144.764 C 303.942 143.941,304.555 143.151,304.784 143.010 C 305.609 142.500,308.887 134.988,309.438 132.346 C 309.748 130.862,310.359 128.152,310.798 126.324 C 311.823 122.047,311.818 118.169,310.781 114.430 C 310.331 112.805,309.709 110.150,309.399 108.529 C 309.089 106.908,308.567 105.091,308.239 104.491 C 307.911 103.891,307.190 102.447,306.635 101.281 C 306.081 100.116,305.081 98.500,304.414 97.690 C 303.746 96.880,303.200 96.020,303.200 95.779 C 303.200 95.070,295.929 87.982,294.400 87.201 C 293.630 86.807,292.664 86.113,292.253 85.659 C 291.842 85.205,290.637 84.545,289.576 84.192 C 288.514 83.839,287.203 83.203,286.663 82.778 C 283.534 80.317,269.984 78.581,264.568 79.948 C 262.826 80.387,260.256 80.950,258.858 81.199 C 257.460 81.447,255.150 82.269,253.725 83.025 C 252.300 83.781,250.920 84.400,250.659 84.400 C 250.399 84.400,249.314 85.120,248.249 86.000 C 247.184 86.880,246.132 87.600,245.912 87.600 C 244.361 87.600,235.327 98.562,234.106 101.925 C 233.834 102.674,233.252 103.868,232.812 104.580 C 232.372 105.292,231.536 108.198,230.955 111.037 C 228.979 120.687,228.979 120.632,231.043 130.504 L 232.194 136.008 231.248 137.704 C 230.727 138.637,229.422 140.192,228.348 141.159 L 226.394 142.919 224.773 142.188 C 222.798 141.297,222.552 140.865,221.808 136.975 C 221.485 135.288,221.053 133.703,220.848 133.453 C 218.527 130.628,218.166 114.744,220.284 108.600 C 220.966 106.620,221.734 104.100,221.990 103.000 C 222.245 101.900,222.982 100.174,223.627 99.165 C 224.272 98.156,224.800 97.022,224.800 96.645 C 224.800 95.749,225.774 93.885,226.603 93.198 C 226.963 92.898,227.593 91.998,228.002 91.196 C 229.609 88.047,237.646 79.927,241.070 77.995 C 242.242 77.334,243.200 76.654,243.200 76.483 C 243.200 76.012,245.421 74.800,246.283 74.800 C 246.701 74.800,247.762 74.271,248.641 73.625 C 249.549 72.956,251.438 72.155,253.019 71.766 C 254.549 71.390,256.340 70.803,257.000 70.462 C 260.017 68.905,273.965 68.155,279.814 69.236 M134.621 108.331 C 137.962 109.599,141.593 113.157,141.599 115.169 C 141.599 115.481,141.915 116.085,142.300 116.511 C 142.843 117.112,143.011 118.059,143.048 120.742 C 143.074 122.644,143.119 124.702,143.148 125.315 C 143.188 126.173,144.327 127.563,148.100 131.357 C 168.363 151.731,168.312 151.675,168.105 153.290 C 167.845 155.326,164.917 158.265,162.508 158.909 L 160.764 159.376 156.282 154.755 C 153.817 152.213,151.481 150.018,151.091 149.876 C 150.701 149.734,150.260 149.299,150.112 148.909 C 149.963 148.519,148.122 146.544,146.021 144.519 C 143.919 142.495,142.067 140.695,141.904 140.519 C 135.651 133.764,135.918 133.920,130.666 133.975 L 126.733 134.017 123.266 132.016 C 108.853 123.695,119.050 102.425,134.621 108.331 M276.475 108.891 C 289.126 115.338,284.543 133.591,270.200 133.881 C 264.430 133.998,264.107 134.109,261.600 136.847 C 255.512 143.495,239.503 159.200,238.815 159.200 C 237.366 159.200,235.953 158.398,233.980 156.456 C 230.425 152.956,230.005 153.652,244.368 139.207 C 258.068 125.427,257.225 126.631,257.135 120.978 C 257.053 115.888,260.628 110.092,264.648 108.796 C 265.501 108.521,266.434 108.109,266.721 107.881 C 268.519 106.451,272.494 106.863,276.475 108.891 M207.661 145.028 C 208.617 145.386,210.858 146.091,212.641 146.594 C 214.463 147.109,216.634 148.054,217.601 148.755 C 218.546 149.440,219.615 150.000,219.977 150.000 C 220.707 150.000,222.398 151.392,226.112 155.050 C 231.061 159.925,233.552 163.417,234.611 166.968 C 234.933 168.051,235.471 169.355,235.806 169.866 C 238.424 173.861,238.588 188.996,236.082 195.262 C 235.436 196.878,234.696 199.186,234.438 200.391 C 234.180 201.596,233.551 203.306,233.039 204.191 C 232.528 205.076,231.814 206.700,231.452 207.800 C 231.091 208.900,230.426 210.340,229.974 211.000 C 229.522 211.660,228.716 213.160,228.183 214.334 C 227.650 215.508,226.761 217.006,226.207 217.665 C 225.653 218.323,225.087 219.343,224.949 219.931 C 224.811 220.519,224.219 221.540,223.634 222.200 C 223.049 222.860,222.156 224.173,221.650 225.117 C 221.144 226.061,220.341 227.243,219.865 227.742 C 219.389 228.242,218.684 229.179,218.297 229.825 C 217.911 230.471,216.831 232.017,215.897 233.259 C 214.964 234.502,213.620 236.302,212.911 237.259 C 212.202 238.217,211.032 239.684,210.311 240.521 C 209.590 241.357,208.370 242.778,207.600 243.678 C 206.830 244.578,205.647 245.877,204.970 246.564 C 204.294 247.251,203.418 248.306,203.024 248.907 C 201.626 251.041,198.661 250.527,196.199 247.724 C 195.100 246.472,193.633 244.807,192.939 244.024 C 189.485 240.121,188.433 238.855,187.273 237.200 C 186.579 236.210,185.204 234.410,184.217 233.200 C 183.230 231.990,182.127 230.460,181.766 229.800 C 181.404 229.140,180.701 228.150,180.204 227.600 C 179.706 227.050,178.848 225.778,178.298 224.773 C 177.748 223.769,176.837 222.449,176.274 221.842 C 175.710 221.234,175.133 220.207,174.991 219.559 C 174.849 218.911,174.301 217.868,173.774 217.242 C 173.247 216.616,172.478 215.315,172.064 214.352 C 171.651 213.388,170.847 211.914,170.278 211.076 C 169.708 210.237,168.961 208.581,168.616 207.396 C 168.271 206.211,167.801 205.124,167.570 204.982 C 166.985 204.620,166.393 203.026,165.755 200.093 C 165.455 198.715,164.836 196.854,164.379 195.958 C 161.805 190.913,161.667 174.122,164.168 170.305 C 164.510 169.784,165.147 168.317,165.584 167.047 C 166.805 163.497,172.963 155.060,175.485 153.482 C 175.764 153.308,176.815 152.453,177.820 151.582 C 178.826 150.712,179.923 150.000,180.259 150.000 C 180.595 150.000,181.647 149.441,182.598 148.759 C 183.552 148.074,185.642 147.164,187.263 146.730 C 188.878 146.297,190.745 145.684,191.411 145.368 C 194.438 143.932,204.188 143.728,207.661 145.028 M193.274 159.579 C 192.544 159.761,191.554 160.268,191.074 160.707 C 190.593 161.145,189.328 161.883,188.262 162.346 C 185.975 163.340,182.467 166.713,181.264 169.073 C 180.795 169.993,180.228 170.859,180.003 170.998 C 176.635 173.080,176.621 188.578,179.983 193.021 C 180.640 193.889,181.183 194.819,181.189 195.087 C 181.216 196.253,188.422 202.594,190.217 203.031 C 190.868 203.189,192.390 203.758,193.600 204.294 C 196.154 205.426,200.941 205.898,203.400 205.261 C 206.744 204.394,211.766 202.338,213.099 201.290 C 215.398 199.484,218.434 196.276,219.053 195.000 C 219.373 194.340,220.063 193.208,220.587 192.485 C 223.454 188.529,223.470 175.827,220.613 171.674 C 219.904 170.642,219.024 169.219,218.658 168.511 C 217.815 166.881,214.372 163.628,212.461 162.657 C 211.658 162.249,210.105 161.349,209.011 160.657 L 207.021 159.400 200.811 159.324 C 197.395 159.282,194.003 159.397,193.274 159.579 M136.382 215.612 C 142.237 216.131,144.521 216.741,147.332 218.539 C 149.829 220.136,150.038 220.548,148.700 221.232 C 148.205 221.485,147.140 222.347,146.334 223.146 C 142.481 226.969,141.159 227.432,137.908 226.100 C 135.371 225.060,123.789 225.094,121.200 226.148 C 120.210 226.552,117.905 227.291,116.078 227.792 C 114.250 228.293,112.360 229.063,111.878 229.503 C 111.395 229.944,110.190 230.690,109.200 231.161 C 105.798 232.780,103.043 235.139,98.175 240.600 C 95.349 243.771,94.433 245.087,93.622 247.144 C 93.169 248.294,92.448 249.723,92.020 250.318 C 91.592 250.913,91.041 252.570,90.796 254.000 C 90.551 255.430,89.962 257.860,89.487 259.400 C 88.357 263.065,88.254 270.371,89.289 273.400 C 89.665 274.500,90.337 277.094,90.783 279.164 C 91.228 281.235,91.849 283.215,92.161 283.564 C 92.474 283.914,93.184 285.231,93.739 286.491 C 94.731 288.744,95.897 290.433,98.921 294.000 C 101.597 297.157,104.634 300.000,105.330 300.000 C 105.619 300.000,106.596 300.634,107.501 301.408 C 108.406 302.183,109.837 303.060,110.682 303.358 C 111.526 303.656,112.897 304.362,113.729 304.926 C 114.560 305.490,116.266 306.149,117.520 306.391 C 118.774 306.632,121.365 307.201,123.278 307.654 C 128.640 308.925,140.723 307.658,144.780 305.399 C 145.341 305.087,146.880 304.307,148.200 303.666 C 149.520 303.026,151.300 301.938,152.155 301.251 C 153.010 300.563,153.910 299.996,154.155 299.992 C 154.400 299.987,155.729 298.862,157.108 297.492 C 160.909 293.715,161.822 292.709,162.633 291.400 C 163.042 290.740,163.854 289.570,164.438 288.800 C 165.021 288.030,165.827 286.455,166.228 285.300 C 166.630 284.145,167.081 283.200,167.230 283.200 C 167.696 283.200,168.382 281.133,169.009 277.838 C 169.340 276.099,169.896 273.579,170.244 272.238 C 171.092 268.978,171.017 264.417,170.047 260.342 C 169.610 258.504,169.065 255.955,168.835 254.677 C 168.606 253.399,168.319 252.193,168.198 251.997 C 167.814 251.375,169.426 248.871,171.659 246.620 L 173.816 244.446 175.489 245.195 C 177.018 245.879,177.215 246.144,177.792 248.272 C 178.139 249.552,179.002 252.490,179.711 254.800 C 181.460 260.501,181.650 273.236,180.047 277.400 C 179.539 278.720,178.728 281.344,178.245 283.231 C 177.762 285.118,176.966 287.171,176.476 287.794 C 175.986 288.417,175.313 289.866,174.979 291.014 C 174.645 292.162,173.999 293.439,173.543 293.851 C 173.088 294.263,172.384 295.230,171.981 296.000 C 170.843 298.169,164.872 305.010,163.223 306.035 C 162.660 306.385,161.942 306.983,161.627 307.364 C 161.311 307.746,160.321 308.425,159.427 308.872 C 158.532 309.320,157.260 310.185,156.600 310.796 C 155.940 311.406,154.680 312.132,153.800 312.409 C 152.920 312.687,151.480 313.414,150.600 314.026 C 149.720 314.638,147.952 315.348,146.672 315.603 C 145.391 315.859,143.051 316.548,141.472 317.134 C 137.131 318.745,122.053 318.755,118.000 317.150 C 116.570 316.584,114.184 315.893,112.697 315.614 C 110.856 315.270,109.534 314.742,108.549 313.960 C 107.754 313.328,106.467 312.635,105.690 312.421 C 104.912 312.206,103.808 311.599,103.238 311.072 C 102.667 310.545,101.414 309.684,100.454 309.158 C 96.812 307.162,89.475 299.713,87.690 296.200 C 87.244 295.320,86.410 294.164,85.839 293.630 C 85.268 293.097,84.800 292.430,84.800 292.149 C 84.800 291.868,84.101 290.311,83.247 288.689 C 82.393 287.068,81.565 284.944,81.407 283.970 C 81.249 282.997,80.694 281.120,80.175 279.800 C 77.803 273.774,77.656 260.755,79.886 254.200 C 80.560 252.220,81.239 249.970,81.396 249.200 C 81.805 247.194,85.019 240.643,86.631 238.533 C 87.384 237.546,88.000 236.541,88.000 236.299 C 88.000 235.613,98.180 225.200,98.850 225.200 C 99.009 225.200,99.703 224.725,100.393 224.144 C 102.242 222.588,108.598 219.252,111.600 218.261 C 112.590 217.934,114.472 217.289,115.782 216.827 C 119.773 215.419,128.433 214.909,136.382 215.612 M277.600 215.625 C 282.039 216.032,285.618 216.800,286.551 217.545 C 286.798 217.742,288.080 218.206,289.400 218.577 C 290.720 218.947,292.520 219.743,293.400 220.345 C 294.280 220.948,295.755 221.769,296.678 222.171 C 297.601 222.573,298.757 223.329,299.248 223.851 C 299.738 224.373,300.392 224.800,300.700 224.800 C 301.009 224.800,301.832 225.385,302.528 226.100 C 303.225 226.815,304.179 227.670,304.647 228.000 C 305.635 228.696,312.400 236.229,312.400 236.633 C 312.400 236.782,312.993 237.736,313.717 238.752 C 315.677 241.502,318.185 246.931,319.376 251.000 C 319.956 252.980,320.735 255.590,321.108 256.800 C 322.237 260.466,322.062 274.186,320.844 277.400 C 320.344 278.720,319.523 281.330,319.020 283.200 C 318.517 285.070,317.541 287.653,316.853 288.941 C 316.164 290.228,315.600 291.532,315.600 291.839 C 315.600 292.146,314.994 293.073,314.253 293.899 C 313.512 294.724,312.527 296.148,312.064 297.062 C 311.601 297.976,310.775 299.076,310.228 299.507 C 309.681 299.937,309.026 300.744,308.773 301.300 C 308.519 301.857,307.912 302.526,307.424 302.787 C 306.935 303.049,306.225 303.789,305.845 304.431 C 305.465 305.074,304.985 305.600,304.779 305.600 C 304.572 305.600,303.727 306.185,302.901 306.900 C 302.076 307.615,300.770 308.545,300.000 308.966 C 299.230 309.388,298.018 310.235,297.307 310.848 C 296.595 311.462,295.310 312.175,294.449 312.432 C 293.589 312.690,292.387 313.329,291.778 313.852 C 291.169 314.376,289.935 314.981,289.036 315.198 C 288.136 315.415,286.140 315.968,284.600 316.428 C 278.241 318.328,276.977 318.478,269.000 318.286 C 262.108 318.121,261.127 318.007,258.474 317.067 C 256.865 316.497,254.474 315.819,253.160 315.560 C 251.662 315.265,250.236 314.664,249.332 313.946 C 248.540 313.317,247.187 312.612,246.325 312.380 C 245.463 312.148,244.369 311.562,243.893 311.079 C 243.417 310.596,242.190 309.660,241.167 309.000 C 238.185 307.077,235.514 304.905,233.895 303.089 C 230.417 299.187,228.762 297.094,228.046 295.690 C 227.627 294.871,226.904 293.855,226.439 293.434 C 225.973 293.013,225.345 291.838,225.044 290.822 C 224.742 289.807,224.050 288.320,223.506 287.517 C 222.961 286.715,222.292 284.924,222.019 283.536 C 221.746 282.149,221.088 279.859,220.557 278.446 C 218.633 273.336,218.367 262.754,220.012 256.800 C 220.408 255.370,221.199 252.505,221.771 250.434 C 223.776 243.175,227.641 243.001,231.337 250.004 C 232.144 251.532,232.139 251.575,229.977 261.296 C 229.058 265.429,229.016 268.060,229.814 271.600 C 230.136 273.030,230.751 275.883,231.180 277.940 C 231.609 279.997,232.265 282.146,232.638 282.714 C 233.011 283.283,233.698 284.660,234.164 285.774 C 235.306 288.501,237.384 291.399,241.670 296.243 C 243.635 298.465,249.562 302.694,251.800 303.472 C 252.461 303.701,253.685 304.353,254.521 304.920 C 255.357 305.488,257.066 306.149,258.320 306.391 C 259.574 306.632,262.165 307.201,264.078 307.654 C 269.440 308.925,281.523 307.658,285.580 305.399 C 286.141 305.087,287.680 304.307,289.000 303.666 C 290.320 303.026,292.100 301.938,292.955 301.251 C 293.810 300.563,294.710 299.996,294.955 299.990 C 295.781 299.972,301.697 293.795,304.140 290.400 C 306.239 287.483,309.075 281.230,309.763 278.000 C 310.115 276.350,310.681 274.010,311.022 272.800 C 311.982 269.388,311.848 263.982,310.689 259.340 C 310.148 257.173,309.489 254.365,309.224 253.100 C 308.959 251.835,308.465 250.523,308.127 250.184 C 307.788 249.845,307.159 248.641,306.728 247.508 C 305.944 245.443,305.219 244.392,302.161 240.882 C 301.259 239.847,300.359 238.713,300.161 238.362 C 299.831 237.780,297.671 235.860,294.303 233.153 C 293.586 232.578,292.019 231.612,290.820 231.006 C 289.620 230.400,288.180 229.573,287.620 229.166 C 287.059 228.760,285.750 228.242,284.711 228.015 C 283.673 227.788,281.603 227.128,280.111 226.548 C 276.515 225.150,267.173 224.734,263.600 225.813 C 258.320 227.406,258.150 227.351,252.900 222.380 C 250.284 219.903,250.279 219.955,253.300 218.295 C 258.272 215.562,266.756 214.630,277.600 215.625 M163.056 228.530 C 163.747 228.789,165.142 229.926,166.156 231.059 C 169.018 234.254,168.859 234.995,164.364 239.420 C 162.364 241.389,158.269 245.492,155.264 248.539 C 152.259 251.585,148.270 255.590,146.400 257.439 L 143.000 260.801 142.922 264.977 C 142.857 268.503,142.686 269.501,141.822 271.388 C 141.260 272.618,140.800 273.774,140.800 273.957 C 140.800 274.536,136.982 277.889,135.970 278.199 C 135.436 278.362,134.190 278.864,133.200 279.314 C 126.203 282.495,116.600 275.159,116.600 266.633 C 116.600 260.489,122.356 253.654,127.592 253.580 C 135.593 253.468,136.610 253.250,137.580 251.438 C 137.881 250.874,138.443 250.313,138.829 250.191 C 139.214 250.069,140.038 249.301,140.660 248.484 C 141.282 247.668,143.413 245.433,145.395 243.517 C 147.378 241.601,149.180 239.832,149.400 239.585 C 151.652 237.054,161.012 228.007,161.354 228.030 C 161.599 228.047,162.365 228.272,163.056 228.530 M251.939 240.674 L 264.518 253.347 269.097 253.485 C 274.007 253.632,274.577 253.811,278.600 256.476 C 282.965 259.367,285.345 268.362,282.603 271.600 C 282.323 271.930,281.960 272.650,281.794 273.200 C 281.396 274.527,277.837 277.925,276.491 278.263 C 275.904 278.410,274.839 278.876,274.123 279.298 C 272.297 280.376,268.926 280.355,266.811 279.252 C 265.911 278.784,264.898 278.400,264.558 278.400 C 263.898 278.400,259.200 274.121,259.200 273.520 C 259.200 273.323,258.808 272.405,258.329 271.481 C 257.677 270.221,257.439 268.998,257.383 266.600 C 257.342 264.840,257.284 262.828,257.254 262.128 C 257.207 261.021,255.597 259.245,244.799 248.393 C 230.195 233.714,230.578 234.341,234.100 230.885 C 235.960 229.060,237.484 228.170,238.980 228.034 C 239.189 228.015,245.020 233.703,251.939 240.674 " stroke="none" fill="#34a8dc" fill-rule="evenodd"></path></g></svg>